/* XPM */
static char *_231d52dbf6f4b6bc21795859c5ddc73mtbhHMEv0L5DgPCo[] = {
/* columns rows colors chars-per-pixel */
"64 64 81 1 ",
"  c #1C393D",
". c #193139",
"X c #142935",
"o c #132734",
"O c #172E38",
"+ c #1A363B",
"@ c #1D3A3E",
"# c #1C393E",
"$ c #19353B",
"% c #172F37",
"& c #152A35",
"* c #132834",
"= c #142A35",
"- c #162C37",
"; c #172D37",
": c #162C35",
"> c #112332",
", c #112432",
"< c #152B36",
"1 c #1A343A",
"2 c #1B3A3E",
"3 c #1D3B3E",
"4 c #1B373C",
"5 c #183239",
"6 c #162D37",
"7 c #1A373C",
"8 c #1E3C3F",
"9 c #1D3B3F",
"0 c #1D3D40",
"q c #1E3C40",
"w c #183038",
"e c #152A36",
"r c #1B383D",
"t c #1E3E41",
"y c #1F3F41",
"u c #193239",
"i c #142835",
"p c #19333A",
"a c #1A343B",
"s c #18343A",
"d c #193339",
"f c #1A363C",
"g c #122633",
"h c #102232",
"j c #1B353B",
"k c #1F4042",
"l c #193138",
"z c #122634",
"x c #102332",
"c c #122533",
"v c #1E3E40",
"b c #1F4143",
"n c #112433",
"m c #204142",
"M c #204244",
"N c #1F3D40",
"B c #182F39",
"V c #102231",
"C c #1F4444",
"Z c #1F4243",
"A c #204243",
"S c #1E3F41",
"D c #1F4544",
"F c #182F37",
"G c #132634",
"H c #102131",
"J c #0F2131",
"K c #162B36",
"L c #1F3F42",
"P c #204042",
"I c #112533",
"U c #0F1F31",
"Y c #193038",
"T c #1C3C3F",
"R c #1B383C",
"E c #101E30",
"W c #0E1E30",
"Q c #0F1D30",
"! c #0E1C2F",
"~ c #1C383D",
"^ c #142834",
/* pixels */
" .XoO+@#$%&*ooo=-;OOO:o>,<123456<X=657@899980q2$w-&Xewrty2woX. 3",
"u;io=O.pa$sw<oi;d+44fp6ghg6u$jjjj$a1pu5upp1spp1$$j$p148kk2l*o-up",
"<XoozgiO$387OoXlr0tt0#u&>xcXO1 qvt0@$%X*X<<=*XO1200880kbk2lico<<",
"cczognzO4tk@wo=p8mMMbN4Bi,V>Xu9kMCZtrB*,,ccn,oOf0bZbkkkk04wi,>nc",
"h>,gieO13kk@wo&10ACCZS3+l<cx*u8ZDCZy3$FeonnG=O12tZCMZkv3756*,hH>",
"hJVcK549tky Foe10ZCZkyN8rp<cXu8bCAmyN9rp6oz:ur90SkZMZS21O<XochJ,",
">Vx*wrvkbbtrOo=p9kbkLykktrB*X.@kbPLykkS#li*FrtkkyLkbk8$6Gcgog,>o",
"IgXO$9kAMbtrFoiw48tSykbAk@.ioOf9vtykbAb9uX*w2kAZkySt84wXxV,z*i=O",
"G-.f@NkbMAL w*G<w$ 0kbAAk@.Xg&B1 8ybAMm95X*w2kAAbk0#$w-o,>,g&Op4",
"X.r0SSykZAk2.inci6s@LZMZy#5Xcc*-d#yZMZk2.X*w yZMZk@16Xoogc,cKp#t",
"%f0mbkyykk0rwi>VVzOf0kbby25=,VVc6$8kbbL@.X*w Sbbk0fOGx,goc,c-19L",
"$@SbZbkS094u6oxJU>Xw+@vkk9pe>JUxiF$20kk9uX*w2kkv@+w=>JhIgcng<lf2",
"9NykbZbt2$F<*chHH>ci-u#ymq1e>HHhc*<.rtm0pX*.9my2u-ic>Vh>,ncgi<OB",
"kkyLkbmq+Oocccccccc,c-+Nk8pe,>ccc,I<1qkqpX*.9kN+-c,ccccccgzGoooo",
"ZbkySt0rYix,iK66--<XX;128rYXcoe-<Xi-p 8 lioF49216XX<--66-eioo*X=",
"bZbk02+lenhoOpj$a1111a$+$Yecg<l1$1pp1$$56*o<wp1pppp11$ff$.<o*-Yp",
"kZZk9$Oinhn-1@00T98NN97.-*,xoF790082+.6=ioGGo=%1 8qT98Nt8fOoXwRT",
"ykk04FoxhnX. Sbbkkkbk8$-chxg-19kZAbv7Ogxnzoc,z;+0mbmkkmmt4Oo&pTP",
"S094.en,o-.78kAMAbkS84YX>nX;prNbCDCy4OnUVnG*X6p tZCAZky0#p<G<a0A",
"t2$B<ociO1 8vLbAMbv 1Fezcew+2qtkZCCyrFgJUVg:.f@0SmZMZy9+l:og:$NA",
"qjOon,g-p@SkLykbZk@p<g,,oO+8ykyykbbtRFohHh*wrNkkyLPbm0+Oon>c-$qm",
"rYihUHc6+0ZAbkySt9jOgHUhowrSZZkLySv216ocgXO$TkZbkyyS0rlXhJVc<5r0",
"wecHEE>-+vMCMbt9rpOX,JUhowrSZMZkt94pOXoi-.+2NkZZbk0@f.:gHUH,*-w$",
"oc,xJEh<$0ZCCZvrY=gn>xhxoF4vbAAm07w<ogG:urqtSLPZZk9$OXocxhh>cco-",
"ncoozcG6$9LbbkT$6gngooc,oF4NmbbS#5X,VhGOf0mbkyLkkN4Fo>coo**oocn*",
"-;%BFFw5$r2@@24sB66OBO=czO4tPL0#1;ohJVzO4tZAbkSNTr.&>>*6wwwFFO6O",
"4444r #r+p.ll.u1jf4rr$Ogn6rLm04.6=Gn>xzO7NbMAbt2$wechg;1r r4Rrrr",
"ytvvSky9$Oizzi;12tLkS@uXc6rLL2lXgzozc,GO+0PZAmq+Oo,h,ep2tytNtykt",
"AZbmPkS2u&hWWVe18bCCZt4F<F489$:,V,gGc,GOf0kmk0rYixxc=w4NbAZmPmk0",
"ACMbS94u-GHQ!UX10ADCbS3fppj71%*hJhnc,>zO4tmS97.<nhG-u49SbACZkN2j",
"mZMk9a;*gnxJWJ=10ZCZkyt0@4pwKic>hx>,>xzF~ymqjOXchc-s20tSkbAZtr.<",
"LkPvrw^,cGogng-19kmkyLPby25X,,goooooc,GO4tt wo>h,X. SbPLykmkT$-g",
"t09raw6K-O%%O%.14@qtyPZMP@lohgK%wwFOezg<p  1<n>o<l78kZZmytq27p%-",
"vrpwlpjfff7rr 4$udfTkZMAk2woc<u7r r$BXnz-.5O*ciOsr9vkbZZkTf.w51+",
"81<iO78tt00tLy9a6ew yZAby w**wr0yLt9a-c>zXe*cg-1@tyyykbZL wXe5#v",
" .&XY#kAZbPPmy@5in<19yPmy#w*X59mCCZS 5<zcc,>xgOfvbZmLyyS8+OiK1qb",
"15w5f8kACMby8rp6oniF$#0kk@l*Xu8ZCCZy8rpOXnHJHgO4tCCAmtT +plwp vb",
"Fp4@qtLmZMP8$OXoggoX-u#ymT.*XuTbCZkyt0@$OGHUHgO4tACCbv4.Ow$ 90Sk",
"<18kmkyLPmt lX,ngog,cK$0y9.*i.2LbkLykmL@p<nhxg;jqkZbk9p=oO4tmkLy",
"=$vACbkSN8 $.6Xi*GnVVow42f%**Oj@0tykbAbvr56XzG<54388@+OccO kCAmL",
"K+tCCCbt 1Y.1$pFeg>VVneFlF<oo<Op4TyZAMZkN@+l<oo<B.uu.OX,Gw2kCCAk",
"6fNZCCb0$-i%4q9$-g>>,Ig*iiooooo<. SZAbmPmkqf%ong*iXXi*c,il#kMCMk",
"-1@tLyt2ueiY@kS4;gcoX=Xi*ooog,hc-$9tSv0tyk07Fonco****ocniB7qyky0",
"XF$rr4f$5Blf0mt76g*6.uu.w6=z,hV,XB144ff4 #Rd-oo<OwllwOXcg<5frr7+",
",X;FO--Fdf20kk0$<G<ur999 1;zVh,g*e-66--;FwF-*Gel7299#j%o>g<OFO-6",
">coog,g-a9kbbk8seo;fNPbmS .X,,goooooooooooog,g6$8kbbL91<c,gooc,*",
"XGI,ng=wrvbCAm8seoOrkCCCm8fw<ioooXe<::<XG,xVhgO7tACCbvr5-*g,,co-",
".:GcXOpr9tmZMb01eoO kCCZkv94pOXoXOp$++al<cHUHgO4tCCAmt8 aFXcz<w$",
"rwXo;j9tSykmZb0a<oOryAZkyySv2p<o<p@Nttq4w*hUVgO7vZAmkyyt9$6oXlr0",
"8pXoF LZbkyykS@deo6j8ykyLkbbv+-o-ftZCAk8$6on,g-13SkyykbZyr%o&p8m",
"8pXoF kMAbkv8 1O*c=w+2qtkbMZt+-o64yCCCbv#1F<ocX%a 8tkbAAk Fo&sqb",
"9uXoFryZMAk84.-*c,gXOp vbAMb0$Ko64yCCbkt094.&n,o-.4qkAMZSrOo=p9P",
"3uXo%rtbZbS#5=cncgcng-19kZZP0$Ko-+NbbkyLkk0fOGxhIe52ybZbt4Oo=d9k",
"9pXoF Smkv21-cxo<6ec>oFfTtkk0+-oe5 qtSLmZZL@1Oinhc-a@vkmSrOo=p8k",
"01=ow2kk0rd6ohI-p$5<cgeBa#tmS4OGo<w$#NkZZbL02+w&,xo;pr0kk#Foe10m",
"v1&ow3ky .egxxi5#8rwicc*-s9ky FG>,o6aTmAbkySSq4w*h>g<.#Lk@woe$tm",
"9pXoF t8a<,h>oO4tk9pX>HVgO4004OG>>ce5 vkkyLPbP8$;o>h,<$8vr%o&p8t",
"fwXo61r+Fzhc=F$9kPTpX>HVne5775<oo=6wua420ymbZbt21FXnhoBfr16oXwfr",
"FK*o&OwOX>>=.49tkL@5X,>ngi<O;eooK57r1FOu SZZbkS097lX>>X%wO=o*-Bw",
"ioooo*ioc>oF40kbbS .Xnngoooooc,o%4NN76o-j0bbkyykk07Oo>coi*ooooii",
",cGoc,>IgXOa9kAMZS .X,,czoX=XonoB kk2we-p 0tSLkZZk31;ign>,gozc>,",
">cGGnVVg<l+20kbAAk25X>hxcX%uuOooOryP04p..5a 0kZZbk02jw<cHVcog>H>",
",cGGnVhXlrqtSykZAk@uX>JJn-$3@1<o6fNkkt97w<<p9kAbkyStq4wihVcog>HI",
",IzogcoO+0mbkLykkvrlXn>nXl2yS4-o-j0mZZk35X*FrtkkyLkbP8j;ocgoGccX"
};
