/* XPM */
static char *_42b8826c72147748795a223659e3d60IIcitSxFaPS9V5B7[] = {
/* columns rows colors chars-per-pixel */
"64 64 232 2 ",
"   c #1C393D",
".  c #193139",
"X  c #142935",
"o  c #132734",
"O  c #172E38",
"+  c #1A363B",
"@  c #1D3A3E",
"#  c #1C393E",
"$  c #19353B",
"%  c #172F37",
"&  c #152A35",
"*  c #132834",
"=  c #142A35",
"-  c #162C37",
";  c #172D37",
":  c #162C35",
">  c #112332",
",  c #112432",
"<  c #152B36",
"1  c #1A343A",
"2  c #1B3A3E",
"3  c #1D3B3E",
"4  c #1B373C",
"5  c #183239",
"6  c #162D37",
"7  c #1A373C",
"8  c #1E3C3F",
"9  c #1D3B3F",
"0  c #1D3D40",
"q  c #1E3C40",
"w  c #183038",
"e  c #152A36",
"r  c #1B383D",
"t  c #1E3E41",
"y  c #1F3F41",
"u  c #193239",
"i  c #142835",
"p  c #19333A",
"a  c #1A343B",
"s  c #18343A",
"d  c #193339",
"f  c #1A363C",
"g  c #122633",
"h  c #102232",
"j  c #1B353B",
"k  c #1F4042",
"l  c #193138",
"z  c #122634",
"x  c #102332",
"c  c #122533",
"v  c #1E3E40",
"b  c #1F4143",
"n  c #112433",
"m  c #204142",
"M  c #204244",
"N  c #1F3D40",
"B  c #182F39",
"V  c #102231",
"C  c #1F4444",
"Z  c #1F4243",
"A  c #204243",
"S  c #1E3F41",
"D  c #1F4544",
"F  c #182F37",
"G  c #132634",
"H  c #102131",
"J  c #0F2131",
"K  c #162B36",
"L  c #1F3F42",
"P  c #204042",
"I  c #112533",
"U  c #0E1F2C",
"Y  c black",
"T  c #000101",
"R  c #0F1F31",
"E  c #050B11",
"W  c #0D0000",
"Q  c #0F0808",
"!  c #030507",
"~  c #420000",
"^  c #FF3434",
"/  c #460000",
"(  c #FF2828",
")  c #FF8D8D",
"_  c #193038",
"`  c #0D1B23",
"'  c #380000",
"]  c #180E0E",
"[  c #091217",
"{  c #A20000",
"}  c #1C3C3F",
"|  c #03070A",
" . c #830000",
".. c #2D1919",
"X. c #04090A",
"o. c #1B383C",
"O. c #0F2130",
"+. c #060000",
"@. c #0A0505",
"#. c #19353A",
"$. c #10212F",
"%. c #E66767",
"&. c #070F15",
"*. c #210000",
"=. c #FF3030",
"-. c #1C0F0F",
";. c #0C171B",
":. c #FF3838",
">. c #B23636",
",. c #DD6666",
"<. c #010102",
"1. c #9C0000",
"2. c #931313",
"3. c #890808",
"4. c #840202",
"5. c #840303",
"6. c #BD4646",
"7. c #010202",
"8. c #101E30",
"9. c #0C1928",
"0. c #1F0000",
"q. c #B40808",
"w. c #FF3939",
"e. c #920000",
"r. c #850303",
"t. c #820000",
"y. c #B43838",
"u. c #8D0D0D",
"i. c #501111",
"p. c #10202B",
"a. c #FF3232",
"s. c #880000",
"d. c #870606",
"f. c #870404",
"g. c #8F0F0F",
"h. c #880707",
"j. c #A62828",
"k. c #070D12",
"l. c #6A0000",
"z. c #930000",
"x. c #860000",
"c. c #830202",
"v. c #991A1A",
"b. c #A75C5C",
"n. c #091315",
"m. c #F42323",
"M. c #F74545",
"N. c #860404",
"B. c #840000",
"V. c #820101",
"C. c #830101",
"Z. c #EA7575",
"A. c #AD0505",
"S. c #FF2929",
"D. c #FF3636",
"F. c #F47D7D",
"G. c #142A2B",
"H. c #2E0000",
"J. c #C20E0E",
"K. c #DF1A1A",
"L. c #660000",
"P. c #F53030",
"I. c #870707",
"U. c #9D1A1A",
"Y. c #BF5C5C",
"T. c #110000",
"R. c #040404",
"E. c #0E1E30",
"W. c #0F0202",
"Q. c #C91111",
"!. c #740A0A",
"~. c #7B0000",
"^. c #020000",
"/. c #0F1D30",
"(. c #0E1C2F",
"). c #ED2020",
"_. c #B60E0E",
"`. c #900000",
"'. c #580000",
"]. c #050000",
"[. c #FB2626",
"{. c #A60202",
"}. c #A50101",
"|. c #4A0000",
" X c #9E0000",
".X c #142834",
"XX c #081112",
"oX c #200505",
"OX c #BB0B0B",
"+X c #E61D1D",
"@X c #FF3333",
"#X c #5F0000",
"$X c #890000",
"%X c #760000",
"&X c #D01414",
"*X c #FF3737",
"=X c #740000",
"-X c #172F30",
";X c #2C0000",
":X c #12242A",
">X c #360000",
",X c #FF2E2E",
"<X c #0C1822",
"1X c #D81717",
"2X c #2D0000",
"3X c #122529",
"4X c #FF3C3C",
"5X c #070000",
"6X c #040809",
"7X c #13262E",
"8X c #1C383C",
"9X c #1B393B",
"0X c #091113",
"qX c #A71A1A",
"wX c #500000",
"eX c #050A0A",
"rX c #0F202A",
"tX c #310808",
"yX c #040909",
"uX c #F52626",
"iX c #430000",
"pX c #0A151B",
"aX c #160303",
"sX c #080000",
"dX c #0A141A",
"fX c #1C0000",
"gX c #183138",
"hX c #090202",
"jX c #0C0202",
"kX c #162C36",
"lX c #04080A",
"zX c #04070A",
/* pixels */
"  . X o O + @ # $ % & * o o o = - ; O O O : o > , < 1 2 3 4 5 6 < X = 6 5 7 @ 8 9 9 9 8 0 q 2 $ w - & X e w r t y 2 w o X .   3 ",
"u ; i o = O . p a $ s w < o i ; d + 4 4 f p 6 g h g 6 u $ j j j j $ a 1 p u 5 u p p 1 s p p 1 $ $ j $ p 1 4 8 k k 2 l * o - u p ",
"< X o o z g i O $ 3 8 7 O o X l r 0 t t 0 # u & > x c X O 1   q v t 0 @ $ % X * X < < = * X O 1 2 0 0 8 8 0 k b k 2 l i c o < < ",
"c c z o g n z O 4 t k @ w o = p 8 m M M b N 4 B i , V > X u 9 k M C Z t r B * , , c c n , o O f 0 b Z b k k k k 0 4 w i , > n c ",
"h > , g i e O 1 3 k k @ w o & 1 0 A C C Z S 3 + l < c x * u 8 Z D C Z y 3 $ F e o n n G = O 1 2 t Z C M Z k v 3 7 5 6 * , h H > ",
"h J V c K 5 4 9 t k y   F o e 1 0 Z C Z k y N 8 r p < c X u 8 b C A m y N 9 r p 6 o z : u r 9 0 S k Z M Z S 2 1 O < X o c h J , ",
"> V x * w r v k b b t r O o = p 9 k b k L y k k t r B * X . @ k b P L y k k S # l i * F r t k k y L k b k 8 $ 6 G c g o g , > o ",
"I g X O $ 9 k A M b t r F o i w 4 8 t S y k b A k @ . i o O f 9 v t y k b A b 9 u X * w 2 k A Z k y S t 8 4 w X x V , z * i = O ",
"G - . f @ N k b M A L   w * G < w $   0 k b A A k @ . X g & B 1   8 y b A M m 9 5 X * w 2 k A A b k 0 # $ w - o , > , g & O p 4 ",
"X . r 0 S S y k Z A k 2 . i n c i 6 s @ L Z M Z y # 5 X c c * - d # y Z M Z k 2 . X * w   y Z M Z k @ 1 6 X o o g c , c K p # t ",
"% f 0 m b k y y k k 0 r w i > V V z O f 0 k b b y 2 5 = , U Y T 6 $ 8 k b b L @ . X * w   S b b k 0 f O G x , g o c , c - 1 9 L ",
"$ @ S b Z b k S 0 9 4 u 6 o x J R > X w + @ v k k 9 p e > E W Q ! F $ 2 0 k k 9 u X * w 2 k k v @ + w = > J h I g c n g < l f 2 ",
"9 N y k b Z b t 2 $ F < * c h H H > c i - u # y m q 1 e > Y ~ ^ Y * < . r t m 0 p X * . 9 m y 2 u - i c > V h > , n c g i < O B ",
"k k y L k b m q + O o c c c c c c c c , c - + N k 8 p e Y / ~ ( ) Y I < 1 q k q p X * . 9 k N + - c , c c c c c c g z G o o o o ",
"Z b k y S t 0 r _ i x , i K 6 6 - - < X X ; 1 2 8 r _ ` ' / ~ ( ) ] [ - p   8   l i o F 4 9 2 1 6 X X < - - 6 6 - e i o o * X = ",
"b Z b k 0 2 + l e n h o O p j $ a 1 1 1 1 a $ + $ _ e Y { / ~ ( ) ) Y p 1 $ $ 5 6 * o < w p 1 p p p p 1 1 $ f f $ . < o * - _ p ",
"k Z Z k 9 $ O i n h n - 1 @ 0 0 } 9 8 N N 9 7 . - * |  .{ / ~ ( ) ) ..X.+ . 6 = i o G G o = % 1   8 q } 9 8 N t 8 f O o X w o.} ",
"y k k 0 4 F o x h n X .   S b b k k k b k 8 $ - c O.+.{ { / ~ ( { ) ) @.#.O g x n z o c , z ; + 0 m b m k k m m t 4 O o & p } P ",
"S 0 9 4 . e n , o - . 7 8 k A M A b k S 8 4 _ X $.Y { { { / ~ ( { %.) ) Y O n R V n G * X 6 p   t Z C A Z k y 0 # p < G < a 0 A ",
"t 2 $ B < o c i O 1   8 v L b A M b v   1 F e z &.*.{ { { / ~ =.{ { ) ) -.;.g J R V g : . f @ 0 S m Z M Z y 9 + l : o g : $ N A ",
"q j O o n , g - p @ S k L y k b Z k @ p < g , , Y { { { { / ~ :.{ { ) >.,.Y o h H h * w r N k k y L P b m 0 + O o n > c - $ q m ",
"r _ i h R H c 6 + 0 Z A b k y S t 9 j O g H R <.1.{ { { { / ~ :.{ 2.3.4.5.6.7.c g X O $ } k Z b k y y S 0 r l X h J V c < 5 r 0 ",
"w e c H 8.8.> - + v M C M b t 9 r p O X , J 9.0.{ { { q.{ / ~ w.e.r.t. .y.u.i.p.- . + 2 N k Z Z b k 0 @ f . : g H R H , * - w $ ",
"o c , x J 8.h < $ 0 Z C C Z v r _ = g n > x Y { { { { ( { / ~ a.s.d.t.f.g.h.j.Y u r q t S L P Z Z k 9 $ O X o c x h h > c c o - ",
"n c o o z c G 6 $ 9 L b b k } $ 6 g n g o k.l.{ { { { ( { / ~ ( z.5.x.c.v.) ) b.n.0 m b k y L k k N 4 F o > c o o * * o o c n * ",
"- ; % B F F w 5 $ r 2 @ @ 2 4 s B 6 6 O B Y { m.m.{ { ( { / ~ :.M.N.B.V.C.Z.) ) Y t Z A b k S N } r . & > > * 6 w w w F F O 6 O ",
"4 4 4 4 r   # r + p . l l . u 1 j f 4 r Y { { m.( ( A.( { / ~ S.D.x.5.C.4.2.F.F.) Y b M A b t 2 $ w e c h g ; 1 r   r 4 o.r r r ",
"y t v v S k y 9 $ O i z z i ; 1 2 t L G.H.J.J.J.( K.( ( { L.L.S.P.t.I.U.t.t.t.t.Y.T.R.Z A m q + O o , h , e p 2 t y t N t y k t ",
"A Z b m P k S 2 u & h E.E.V e 1 8 b C Y W.( ( ( Q.{ ( ( { { { w.!./ / { ~./ ~./ / / ^.m k 0 r _ i x x c = w 4 N b A Z m P m k 0 ",
"A C M b S 9 4 u - G H /.(.R X 1 0 A D Y ( ( ( ( { ).( q.{ { { w._./ / { { `.'.`.`.`.].S 9 7 . < n h G - u 4 9 S b A C Z k N 2 j ",
"m Z M k 9 a ; * g n x J E.J = 1 0 Z C Y ( ( [.{ {.( ( { { { { w.}./ / { { / { |. X{ Y q j O X c h c - s 2 0 t S k b A Z t r . < ",
"L k P v r w .X, c G o g n g - 1 9 k m XXoX( { OX+X( +X{ { { s.@X{ / / { { #X$X{ / %XXX  w o > h , X .   S b P L y k m k } $ - g ",
"t 0 9 r a w 6 K - O % % O % . 1 4 @ q t Y &X{ ( { ( { { { { ~ *X{ / / =X{ { / { =XY   1 < n > o < l 7 8 k Z Z m y t q 2 7 p % - ",
"v r p w l p j f f f 7 r r   4 $ u d f } -X;X{ OX+XOX{ { { +X~ w.{ / / / { { / #X;X:X5 O * c i O s r 9 v k b Z Z k } f . w 5 1 + ",
"8 1 < i O 7 8 t t 0 0 t L y 9 a 6 e w   y Y { { ( { { { [.( ~ w.{ / / / { { / >XY X e * c g - 1 @ t y y y k b Z L   w X e 5 # v ",
"  . & X _ # k A Z b P P m y @ 5 i n < 1 9 y Y { ( { { q.( ( ~ ,X{ / / / { `.`.Y <Xc , > x g O f v b Z m L y y S 8 + O i K 1 q b ",
"1 5 w 5 f 8 k A C M b y 8 r p 6 o n i F $ # Y { 1X{ { ( ( ( ~ a.{ / / / { / 2XY X n H J H g O 4 t C C A m t }   + p l w p   v b ",
"F p 4 @ q t L m Z M P 8 $ O X o g g o X - u 3X' { { K.( ( ( ~ 4X{ / / / { / 5X6X7XG H R H g O 4 t A C C b v 4 . O w $   9 0 S k ",
"< 1 8 k m k y L P m t   l X , n g o g , c K $ Y { { ( ( ( ( ~ 4X{ / / / { / Y 8Xp < n h x g ; j q k Z b k 9 p = o O 4 t m k L y ",
"= $ v A C b k S N 8   $ . 6 X i * G n V V o w 4 Y A.( ( ( ( ~ ( { / / / { Y 9Xv r 5 6 X z G < 5 4 3 8 8 @ + O c c O   k C A m L ",
"K + t C C C b t   1 _ . 1 $ p F e g > V V n e F 0XqX( ( ( ( ~ ( { / / / wXeXZ k N @ + l < o o < B . u u . O X , G w 2 k C C A k ",
"6 f N Z C C b 0 $ - i % 4 q 9 $ - g > > , I g * i Y ( ( ( ( ~ ( { / / / Y b m P m k q f % o n g * i X X i * c , i l # k M C M k ",
"- 1 @ t L y t 2 u e i _ @ k S 4 ; g c o X = X i * rXtX( ( ( ~ ( { `.`./ yXv 0 t y k 0 7 F o n c o * * * * o c n i B 7 q y k y 0 ",
"X F $ r r 4 f $ 5 B l f 0 m t 7 6 g * 6 . u u . w 6 7.uX( ( ~ ( { { 1.7.4 f f 4   # o.d - o o < O w l l w O X c g < 5 f r r 7 + ",
", X ; F O - - F d f 2 0 k k 0 $ < G < u r 9 9 9   1 ; Y ( ( iX( { { Y 6 6 - - ; F w F - * G e l 7 2 9 9 # j % o > g < O F O - 6 ",
"> c o o g , g - a 9 k b b k 8 s e o ; f N P b m S   . pXaX( / ( { sXdXo o o o o o o o g , g 6 $ 8 k b b L 9 1 < c , g o o c , * ",
"X G I , n g = w r v b C A m 8 s e o O r k C C C m 8 f w Y ( / ( fXY e < : : < X G , x V h g O 7 t A C C b v r 5 - * g , , c o - ",
". : G c X O p r 9 t m Z M b 0 1 e o O   k C C Z k v 9 4 gXhX^.jX+.kXp $ + + a l < c H R H g O 4 t C C A m t 8   a F X c z < w $ ",
"r w X o ; j 9 t S y k m Z b 0 a < o O r y A Z k y y S v 2 p lXzX< p @ N t t q 4 w * h R V g O 7 v Z A m k y y t 9 $ 6 o X l r 0 ",
"8 p X o F   L Z b k y y k S @ d e o 6 j 8 y k y L k b b v + - o - f t Z C A k 8 $ 6 o n , g - 1 3 S k y y k b Z y r % o & p 8 m ",
"8 p X o F   k M A b k v 8   1 O * c = w + 2 q t k b M Z t + - o 6 4 y C C C b v # 1 F < o c X % a   8 t k b A A k   F o & s q b ",
"9 u X o F r y Z M A k 8 4 . - * c , g X O p   v b A M b 0 $ K o 6 4 y C C b k t 0 9 4 . & n , o - . 4 q k A M Z S r O o = p 9 P ",
"3 u X o % r t b Z b S # 5 = c n c g c n g - 1 9 k Z Z P 0 $ K o - + N b b k y L k k 0 f O G x h I e 5 2 y b Z b t 4 O o = d 9 k ",
"9 p X o F   S m k v 2 1 - c x o < 6 e c > o F f } t k k 0 + - o e 5   q t S L m Z Z L @ 1 O i n h c - a @ v k m S r O o = p 8 k ",
"0 1 = o w 2 k k 0 r d 6 o h I - p $ 5 < c g e B a # t m S 4 O G o < w $ # N k Z Z b L 0 2 + w & , x o ; p r 0 k k # F o e 1 0 m ",
"v 1 & o w 3 k y   . e g x x i 5 # 8 r w i c c * - s 9 k y   F G > , o 6 a } m A b k y S S q 4 w * h > g < . # L k @ w o e $ t m ",
"9 p X o F   t 8 a < , h > o O 4 t k 9 p X > H V g O 4 0 0 4 O G > > c e 5   v k k y L P b P 8 $ ; o > h , < $ 8 v r % o & p 8 t ",
"f w X o 6 1 r + F z h c = F $ 9 k P } p X > H V n e 5 7 7 5 < o o = 6 w u a 4 2 0 y m b Z b t 2 1 F X n h o B f r 1 6 o X w f r ",
"F K * o & O w O X > > = . 4 9 t k L @ 5 X , > n g i < O ; e o o K 5 7 r 1 F O u   S Z Z b k S 0 9 7 l X > > X % w O = o * - B w ",
"i o o o o * i o c > o F 4 0 k b b S   . X n n g o o o o o c , o % 4 N N 7 6 o - j 0 b b k y y k k 0 7 O o > c o i * o o o o i i ",
", c G o c , > I g X O a 9 k A M Z S   . X , , c z o X = X o n o B   k k 2 w e - p   0 t S L k Z Z k 3 1 ; i g n > , g o z c > , ",
"> c G G n V V g < l + 2 0 k b A A k 2 5 X > h x c X % u u O o o O r y P 0 4 p . . 5 a   0 k Z Z b k 0 2 j w < c H V c o g > H > ",
", c G G n V h X l r q t S y k Z A k @ u X > J J n - $ 3 @ 1 < o 6 f N k k t 9 7 w < < p 9 k A b k y S t q 4 w i h V c o g > H I ",
", I z o g c o O + 0 m b k L y k k v r l X n > n X l 2 y S 4 - o - j 0 m Z Z k 3 5 X * F r t k k y L k b P 8 j ; o c g o G c c X "
};
