/* XPM */
static char *result[] = {
/* columns rows colors chars-per-pixel */
"64 64 106 2 ",
"   c #0E1C2F",
".  c #0F1E31",
"X  c #101E30",
"o  c #0F2131",
"O  c #122533",
"+  c #152A36",
"@  c #182F37",
"#  c #172E38",
"$  c #182F39",
"%  c #19333A",
"&  c #1C3A3E",
"*  c #20343F",
"=  c #1E3E41",
"-  c #253543",
";  c #253E44",
":  c #2B3E49",
">  c #1F4143",
",  c #204143",
"<  c #264648",
"1  c #2B454A",
"2  c #2D4B4D",
"3  c #31434E",
"4  c #304B4F",
"5  c #354652",
"6  c #374C53",
"7  c #3A4C55",
"8  c #355254",
"9  c #3A5257",
"0  c #3A5659",
"q  c #3D5A5B",
"w  c #40575C",
"e  c #455360",
"r  c #465E61",
"t  c #495F64",
"y  c #505E68",
"u  c #486163",
"i  c #4D6769",
"p  c #4D6869",
"a  c #51636B",
"s  c #536B6E",
"d  c #5B6D72",
"f  c #626D77",
"g  c #63767A",
"h  c #637A7B",
"j  c #048D19",
"k  c #098F1E",
"l  c #0A901F",
"z  c #0D9122",
"x  c #119326",
"c  c #159529",
"v  c #1A972E",
"b  c #1D9831",
"n  c #219A34",
"m  c #269D39",
"M  c #2B9E3D",
"N  c #2EA040",
"B  c #34A345",
"V  c #37A448",
"C  c #3DA74D",
"Z  c #43AA54",
"A  c #51B060",
"S  c #707C84",
"D  c #708586",
"F  c #758088",
"G  c #7E8C90",
"H  c #818A93",
"J  c #809494",
"K  c #8B979C",
"L  c #929CA1",
"P  c #99A4A7",
"I  c #9FADAE",
"U  c #A1ACAE",
"Y  c #A6ADB2",
"T  c #A5B0B2",
"R  c #ABB3B7",
"E  c #B3BBBE",
"W  c #8ACA94",
"Q  c #B6BEC1",
"!  c #B8BFC2",
"~  c #B6C1C1",
"^  c #BAC2C4",
"/  c #BEC8C8",
"(  c #C5CBCE",
")  c #C9CED1",
"_  c #D0D4D7",
"`  c #D0D7D8",
"'  c #D5DADB",
"]  c #DADDDF",
"[  c #D9EEDD",
"{  c #DBDEE0",
"}  c #DFE2E3",
"|  c #DFF1E2",
" . c #E2E5E6",
".. c #E4E7E8",
"X. c #E5E8E9",
"o. c #EBEDEE",
"O. c #E3F2E5",
"+. c #E7F4E9",
"@. c #EEF6EF",
"#. c #EEEFF1",
"$. c #EEF0F1",
"%. c #F3F5F5",
"&. c #F4FAF5",
"*. c #F7F7F8",
"=. c #F7F8F8",
"-. c #FFFFFF",
/* pixels */
"& % + O # & & & @ # O O O O + + + @ @ @ @ + O o O @ & & & & @ + + + O + % & & & & & & = = = = % % # + + + % % = = & @ O + % & & ",
"% + + O + @ % % @ & % # @ O O @ % % & % % % @ O o O + @ % & % & % % & % % % @ % % % % % % % % % % % % % % % = > > & % O O # % % ",
"+ + O O O O + + % & = & @ O + % & & > > > & @ O O o O + # % & = = > = & % @ O O + + + + O + # % & = = & = = > > = & % + O + + + ",
"O O O + O O O % & = = & % O + % > > > > > = & # + O o o O # = = , > > = & % + O O O O O O O # % = > > > > = > = = % % O O o O o ",
"O O O O + + + % & > = & @ O # & > > > > , = & & % + O o + % = = > > > > & % @ + O o O O + @ % & = > > > > > = = % % @ O o o o O ",
"O . O O + @ & & = > = = @ O + @ & > > > > = & = & % # O O % = = > , , = = & & % # + O # % % = = = > > > > > & % # + + + O o o O ",
"O . O O % & & > > > = % @ + + % & ; > , = > > > = & # O + & & = > , > = > > > & @ O O # & > > > = > > > > = % + O O O O O O o + ",
"O O O # % & > , > > = = @ O O @ & & = = = > > , > & @ O O @ & & > > = = > > > & % + + % % > > > > = = = = % % + O o O O + O + @ ",
"O + % % = = > > > > = & # O + # % & & & = , , , ; & % + O + % % & & > > , , , = @ + O % & = > > > = = & % % # O O o o O @ @ % % ",
"+ @ & = = = = = > > = & @ O O O O + % & = > > > & & $ + O O O + % & = > , > > & % O O @ & = > > > > & % + + O + + O O O + % & = ",
"# % = > > = = > > > = & @ + o o O O # & = = = = > & % + O O o O @ % & > , > > & % O O % & = > > > = % # O O O O O O O O # % & > ",
"% = = > > > = = = = & # # O O o X O O $ & & = < < , ; * O . . O O @ % & & > > & % + O % & > > = & % % + o o o O O O O O + % % & ",
"= = = > > > > = & & # # O O O o O - y S T ^ ^ ~ ~ ~ E E Y H f e 9 5 3 6 9 0 q 0 6 5 3 6 0 q 6 & % + O O O o o O O o O O + @ # # ",
"= > = = > = > = % # O O O O O O O K $.-.-.-.-.-.-.-.-.-.-.-.-.=.%.X.......X.X.X.X. .........' K < O O O O O O O O + O O O O + O ",
"> > > = = = = = @ O o O O + # # 7 %.-.-.-.-.-.-.-.-.-.-.-.-.-.-.-.-.-.-.-.-.-.-.-.-.-.-.-.-.-.-.T % + + # + # # # + + O O + + + ",
"> > > > = = @ @ # O o + @ @ % & d -.-.-.-.-.-.-.-.-.-.-.-.-.-.-.-.-.-.-.-.-.-.-.-.-.-.-.-.-.-.-.$.9 % & % % % % % % + O + + # % ",
"> > = = = % # + O o O + % & = & s -.-.-.-.-.-.-.-.-.-.-.-.-.-.-.-.-.-.-.-.-.-.-.-.-.-.-.-.-.-.-.%.u = & & & & > & & @ O + % & & ",
"= > = = % # O o o O + % & > > > p -.-.-.-.-.-.-.-.-.-.-.-.-.-.-.-.-.-.c k x b -.-.-.-.%.=.-.-.-.#.r > , > > , , > % @ O + % & > ",
"= = = & % + o O O # % % & > > > p -.-.-.-.-.-.-.-.-.-.-.-.-.-.-.-.-.-.j j x b -.-.-.-.-.=.-.-.-...q > , > > > > & % + + + % & > ",
"= = % # + + O + @ % & & > > > > h -.-.-.-.-.-.-.-.-.-.-.-.-.-.-.-.-.-.k z z n -.-.-.-.-.-.-.-.-...q > , > > & % @ + O O + % > > ",
"= & # O o O O # % & > > > & > > G -.-.-.-.-.-.-.-.-.-.-.-.-.-.-.-.-.-.A m m C -.-.-.-.-.-.-.-.-.} 8 > > > & % @ O O O O + & & , ",
"% % O O o o O # % = > > > > = > I -.-.-.-.-.-.-.-.-.-.-.-.-.-.-.-.-.-.&.-.-.-.-.-.-.-.-.-.-.-.-.` 4 > > & & % + o o o O + % & & ",
"$ + O . X X o # % > < > , > = & E -.-.-.-.=.-.-.-.[ j j j j j k j j j z z C W -.-.-.-.-.-.-.-.-./ 4 > & % % + O o o O O O + @ & ",
"O O O O o . o + % > > > > > > & E -.-.-.-.-.-.-.-.v j j j j j j j j j j j k v -.-.-.-.-.-.-.-.-.~ < = % @ + O O o O O O O O O + ",
"O O O O O O O + % & , > = , & % E -.-.-.-.-.-.-.x j j k j j j j j j j j j j z j &.-.-.-.-.-.-.-.~ * % @ O O O + O O O O + O O + ",
"+ $ $ % @ + % % % & & & & & % % E -.-.-.-.-.-.-.n x j j j j j j j j k j j j z j -.-.-.-.-.-.-.-.E & % + O O O + @ % @ @ @ + + # ",
"% & & & & & & & % % % @ % % % % E -.-.-.-.-.v c M n -.[ j j j j j j j j z z k j Z -.-.-.-.-.-.-.T % + O O O + % & & & & % & & & ",
"; = = & = > = & & # + O O + $ % ~ -.-.-.-.-.j j z j -.-.j j j j j j j z -.-.x j j O.-.-.-.-.-.-.K O O o O + % & = = & = = = > = ",
"> > > , , > > & @ + O . . o + % Q -.-.-.-.-.j j j j -.-.j j j j j j j z -.-.c j j k l x -.-.-.-.D O o O O % & > > , > , , , , & ",
"> > , > = & % % + O o .   . + % ~ -.-.-.-.-.m z z n -.-.j j j j j j j j -.-.-.j j j j j l N -.-.a o O + % & & & > > > > > & & % ",
"> > , , & % + O O O O O . o O % ~ -.-.-.-.-.-.-.-.-.-.-.j j j j j j l j -.-.-.k j j j z k Z -.=.5 O @ % & & = > > > , > = & % + ",
"> > > & & % + O O O O O O O + % E -.-.-.-.-.-.-.-.-.-.-.z j j j j j j j -.-.-.-.-.-.-.-.-.-.-.$.: + @ & = > > > > > , > & % # O ",
"= & & & % % @ + + + @ @ $ + $ % E -.-.-.-.-.-.-.-.-.-.-.j j j j j j j j -.-.-.-.-.-.-.-.-.-.-.X.: @ & & = > > > > = & & % % # + ",
"= & % $ % % % % & % & & & & % & E -.-.-.-.-.-.-.-.-.-.-.k j j j j j j k -.-.-.-.-.-.-.-.-.-.-.} < & & & > > > > = = & @ % % % % ",
"& % + + @ & & = = & & = = ; & ; E -.-.-.-.-.-.-.-.-.-.-.k j j j j j j l -.-.-.-.-.-.-.-.-.-.-.' 2 & , ; = > > = = & @ + + % & = ",
"& % + O @ & , , > > > > > = & ; ^ -.-.-.-.-.-.-.-.-.-.-.k j j x =.-.l j x Z -.-.-.-.-.-.-.-.-.( 2 > > > > = = = = & @ O + % = > ",
"% % @ % & & > , > > > > = & % : _ -.-.-.-.-.-.-.-.-.-.-.l j j j -.-.l j k M -.-.-.-.-.-.-.-.-.^ < > > < > > & & % % @ @ % & = > ",
"@ % % & & > = , > > > > % $ O : } -.-.-.-.-.-.-.-.-.-.+.j j j k -.-.j j j k -.-.-.-.-.-.-.-.-.^ > > > , > = & % @ @ & & & = = = ",
"+ % & , , > & , , > > & $ + O : X.-.-.k j j j k j j k z j j j x -.-.j k j j M M -.-.-.-.-.-.-.~ & > > , > & % + O @ & = > > > = ",
"+ % = , > , , > & & & % % + + 5 X.-.-.j l j j j j j j j j j j M -.-.c c j c M b -.-.-.-.-.-.-.~ & & & & & & @ o o @ & > > > > = ",
"+ & = , > > > > & % # % & @ % 6 o.j j j j j j j j j j j k j -.-.-.-.-.-.b z c n -.-.=.-.-.-.-.! @ % % % @ @ + O O % & > > > > > ",
"+ % = > > > > > % # O @ & = = w o.z j k j j j k l z z x j c -.-.-.-.-.-.M k j b -.-.-.-.-.-.-.Q O O + O O + O o O @ & > > > > > ",
"+ % & & > > > & @ # O @ & = = r *.-.-.-.-.-.-.-.-.-.%.-.-.-.-.-.-.-.-.| z c j k v v -.-.-.-.-.! O + O + + O O O + % & & > > > > ",
"+ @ & & & & % % % @ % % = = = r -.-.-.-.-.-.-.-.-.-.-.-.-.-.-.-.-.-.-.-.-.-.n j j n -.-.-.-.-.~ @ % % @ % @ + O O + @ & & & % % ",
"O + @ @ + + @ @ @ & & = , = = t -.-.-.O.-.-.-.-.-.-.-.-.-.-.-.-.-.-.-.-.-.-.M b c M -.-.-.-.-.~ & & & = & % @ O o O # @ @ @ + # ",
"o O O O O O O + & & = > > , & i -.-.-.c n n c m | -.-.-.-.-.-.-.-.-.-.-.-.-.-.-.-.-.-.-.-.-.-.~ & > > > > & % + O O O O O O O O ",
"+ O O O O O + % & & > > , , & g -.-.-.M -.-.-.-.-.-.-.-.-.-.-.-.-.-.-.Z -.-.-.-.-.-.-.-.-.-.-.E > > > > > & % % # + O O o O O @ ",
"% # O O + @ % % = = , > , > & G -.-.-.M -.-.-.-.-.-.-.-.-.-.-.-.-.-.-.-.-.-.-.-.-.-.-.-.-.-.-.o.> > > > > > > & % # + O O + % % ",
"& @ + O + & & & > > , , , > & P -.-.-.j m N m x -.-.-.k -.-.-.z -.-.-.b -.-.x k j j z &.-.-.-.%.> > > > > = = = & & + + + @ & & ",
"= @ + O @ & > > > > = , > = & U -.-.-.v -.=.&.-.-.-.-.&.b -.M -.-.-.-.j -.-.-.-.V -.-.-.-.-.-...& > > > > > > > = & + + + % & , ",
"= % + O @ & > > , > > & * * % ( -.-.-.M -.-.-.-.-.-.-.-.-.b -.-.-.-.-.k -.-.-.-.V -.-.-.-.-.-.} % & & > > > > > = & + O + % = , ",
"= % + O + & > > , , > & & $ O [ #.%.-.x n n m M -.-.-.@.m -.n -.-.-.-.j -.-.-.-.B -.-.-.-.-.=.{ + @ & & > , > > = & + + + % & , ",
"& @ + O @ & & > > > > & % + O E *.o.%.*. .=.-.=.=.=.%.b o.-.%.x @.-.-.b -.-.-.-.V -.-.-.-.o._ ( O + @ & > > > > & & % O + % & , ",
"= % + + @ & > > > = & % + O O % L ) $.#.] ] ..#.%.-.=.-.-.o.%.} } ..X.o.%.%.%.%.%.%.%.o.] &.=. .o O + & & = > > > & + + O % & > ",
"= % O O @ & > > & & % @ O O O + % % % + O O + % % & = h D 2 + O O + @ % & = > > > > = = & & @ O O O O @ % & = > > & @ O + % > , ",
"= % + O @ & > > & @ + O o O O @ & & & % O O O O # % & > = & $ O O O O # % & > , > > > = > & & @ O o O O + @ & = = & @ O + & & , ",
"& % + O @ & , & % + O o O O @ & = = & % + O O o O # & & & & $ O O O O + % & = > > > = , > ; & & % O O o O + % & & & @ O + % & = ",
"& @ + + + % & % @ O o O + @ % = > > & % O O o o O + @ & & % + O O O + @ % % % & & > , > > > = & % % O O o O @ & & % # O + % % & ",
"+ + O O + @ % + + O O + # & = = > = & @ + O O O O O + $ + + O + + @ & & % @ # % & & > > > > > & & & @ O O O + @ @ @ + + O # @ @ ",
"+ + + O + O + O O o O @ & = = = > > & % O O O O + O O + O O O O % & & = & # O + & = > > > & > > > & & # O O O O + O O O O O # O ",
"O O O O O O o O O + # % & = > > > > & @ O O O O O O + + + O O + $ & = > & @ O @ % & & = = = > > > > & % @ + O O O O O + O O O O ",
"O O O O O O o O + + & & = = > > , > & @ + O o o O + @ % % @ O O + & = > & & % % % % % & = > > > > > = & % @ + O o O O O O O o O ",
"O O O O O o O + % & = = = > > > > > & % O O o o o # % & & % + O + & = > > = = & + + + % & > , > > = = = ; % $ + o O O + O O O O ",
"O O O + O O O # % & > > > = > > > & & % + O O O + @ & > = & # + + % & > > > = & % + + + & = > > = = > > , & % + O O O O O O O O "
};
