/* XPM */
static char *_677cf80d20b4224dd5506dad608449beKlyMYXdytpQlHBF[] = {
/* columns rows colors chars-per-pixel */
"64 64 202 2 ",
"   c #0F1F31",
".  c #101E30",
"X  c #0E1C2F",
"o  c #0F2131",
"O  c #122533",
"+  c #152A36",
"@  c #182F37",
"#  c #172E38",
"$  c #182F39",
"%  c #1A2735",
"&  c #19343A",
"*  c #1C3A3E",
"=  c #113433",
"-  c #292E34",
";  c #233C3C",
":  c #2A3D3E",
">  c #283339",
",  c #323335",
"<  c #343C3A",
"1  c #3A3B3D",
"2  c #363536",
"3  c #372B35",
"4  c #452D36",
"5  c #453833",
"6  c #4D3937",
"7  c #75383D",
"8  c #6A3034",
"9  c #0D4D32",
"0  c #115C31",
"q  c #134F33",
"w  c #3B443E",
"e  c #36423C",
"r  c #2F5F32",
"t  c #2D423F",
"y  c #0B6530",
"u  c #126232",
"i  c #1A6232",
"p  c #424036",
"a  c #4A433A",
"s  c #5C4235",
"d  c #56453A",
"f  c #58483C",
"g  c #63422C",
"h  c #69452E",
"j  c #694635",
"k  c #684837",
"l  c #744A35",
"z  c #7D4C36",
"x  c #794E3B",
"c  c #78493A",
"v  c #7C503B",
"b  c #1E3E41",
"n  c #223E42",
"m  c #283A44",
"M  c #353D42",
"N  c #3E3F41",
"B  c #3D3540",
"V  c #763D46",
"C  c #1F4143",
"Z  c #204143",
"A  c #2A4344",
"S  c #28474B",
"D  c #334445",
"F  c #384949",
"G  c #3E4C53",
"H  c #345158",
"J  c #3F5C64",
"K  c #4F4245",
"L  c #454748",
"P  c #5B4B48",
"I  c #4F524F",
"U  c #575148",
"Y  c #484A51",
"T  c #43565A",
"R  c #5B5552",
"E  c #555459",
"W  c #595857",
"Q  c #674A48",
"!  c #6C5249",
"~  c #645149",
"^  c #745246",
"/  c #78574B",
"(  c #665D5A",
")  c #7C5E54",
"_  c #74595A",
"`  c #67645E",
"'  c #77625A",
"]  c #5E5C62",
"[  c #4D5F6B",
"{  c #4E616D",
"}  c #58646A",
"|  c #536C72",
" . c #59797A",
".. c #6B666A",
"X. c #6A6A6E",
"o. c #656467",
"O. c #776B69",
"+. c #6D6B72",
"@. c #726F77",
"#. c #7A757D",
"$. c #76757C",
"%. c #7C7162",
"&. c #8F3434",
"*. c #8C3C37",
"=. c #933535",
"-. c #923A3B",
";. c #9C3A3A",
":. c #9A3536",
">. c #A23D3E",
",. c #AB3E3E",
"<. c #814D36",
"1. c #814C38",
"2. c #85513A",
"3. c #8C553B",
"4. c #8F583E",
"5. c #8E3E41",
"6. c #853F49",
"7. c #A33F40",
"8. c #8A4547",
"9. c #954743",
"0. c #845442",
"q. c #8C5C46",
"w. c #885944",
"e. c #945E4C",
"r. c #844C51",
"t. c #974E52",
"y. c #8E575A",
"u. c #A34242",
"i. c #AB4244",
"p. c #AF4B46",
"a. c #B6464C",
"s. c #B6484A",
"d. c #B9494E",
"f. c #A84A52",
"g. c #B94D54",
"h. c #AA535A",
"j. c #B95F4D",
"k. c #9B624F",
"l. c #886454",
"z. c #9E6551",
"x. c #916E5D",
"c. c #9F6953",
"v. c #A56E59",
"b. c #A36C56",
"n. c #A8735C",
"m. c #A6715C",
"M. c #B17F5C",
"N. c #A85D63",
"B. c #927669",
"V. c #8C6B71",
"C. c #877279",
"Z. c #8E676C",
"A. c #A56366",
"S. c #A87863",
"D. c #B77865",
"F. c #AD6B6A",
"G. c #C64E56",
"H. c #C25053",
"J. c #C26954",
"K. c #D55561",
"L. c #9E947D",
"P. c #BD8871",
"I. c #CE8A5E",
"U. c #D59473",
"Y. c #C5917B",
"T. c #D0A473",
"R. c #E3B07E",
"E. c #7B7B85",
"W. c #827C85",
"Q. c #877B85",
"!. c #7C8387",
"~. c #7A8B97",
"^. c #729691",
"/. c #758FA0",
"(. c #96878D",
"). c #848A93",
"_. c #939294",
"`. c #A78792",
"'. c #A38E8B",
"]. c #8798A8",
"[. c #BE9EB1",
"{. c #96A3AC",
"}. c #9BAAB5",
"|. c #A1B2BF",
" X c #B5A2B4",
".X c #DBBC98",
"XX c #D3AF92",
"oX c #E9BE93",
"OX c #E0C2A1",
"+X c #9AB2C2",
"@X c #A1B3C0",
"#X c #A0B4CE",
"$X c #A8B9C9",
"%X c #BCB1CA",
"&X c #B8BFD5",
"*X c #B0C1D5",
"=X c #B9CAE2",
"-X c #BECEEA",
";X c #B6C8E5",
":X c #CADAFB",
">X c #C4D5F3",
",X c #CECCCE",
/* pixels */
"* & + O # & * * & # + O + O + + + + # + # + + O O + & * * & & $ + + + + & & * b b b b b b b b & & + + + + # & b C * # + + & * * ",
"& + + O + # & & & & & @ + O + + & & * * * & + O o O + @ & * & & & & & & & & & & & & $ & & # & & & & & & & & C C C & & O o + & & ",
"+ + O + O O + # * * * * + + + @ * b C C * * & + O o O + + & * b Z C b * & @ + O + + + + o + # & b b b b b b C C C b # + O + + + ",
"O O O O O O O # & C C * # O + & C Z C Z C b & & + O o O + & * Z Z Z C b * # O O o O O O o + # & b C C C C C C C b & # + o O o O ",
"O O O O O + $ & * C C * & + + & * Z C C C b * & @ + O O O & * Z C C C b * * @ + O O O O O O b b b b C C C C b & & & @ O O o O O ",
"O   O O + & & * C C * * @ O + & b C C C C Z b b * & + O + & * C C Z Z C * * * & $ O O # $ b b b b b C C C C b & # + + + O o o o ",
"O   o + @ * b C C C * * # O + & * C Z b b b C C b * + O O & * C C Z b b C C b * & O O + b b b C C b C C C b & + + o O O O O O O ",
"O O + + & * C C C C C * @ O + @ * * b C b Z C Z C * & + O & & * C C b C C C C * & + O + b b C C C b b b b & & + o o O O O + + # ",
"O + & & * * b C C Z b * @ + O + # & * b b C C Z b b & O O + $ & * * C C C C C b # + + # b b b C C C b * & # + O O O O O + @ & & ",
"+ & * * C C b C C Z C * # + O O + # & * C C C C b & & + O O + + & * t C C C C b # + + # b b b b C C * & + + + + O O O O @ & * C ",
"# & b C C C b C C C b * # O o o . O $ & b C C C b b $ + O . O + & & * C C C Z * # + O @ b b b b C * * # + o O O O O O O + * * C ",
"& * b C C C b b b * * # + + O o   O + + & * b C b b $ + O O % _ B.B.B.B.' Z Z * & + O & b b b 9 * & # + o o o O O O O O + # & * ",
"b b n C C C C b * & + + + O O o O O O + + & * b b b & + F P R S.P.P.P.P.' * Z * & + + @ * C t * & + + O o o o o o + O O + + # # ",
"C C b b C C C b * + + O O O O O O O O O O # & b C b & @ B.Y.Y.b.v.n.n.w.s * Z b & O O & * C * * + O O O + o + O O o + o O O O + ",
"C C C b C b b & @ + o O + + + + # + + + + # & b b & N l.n.M.m.m.n.m./ w.v s < * & + O @ * * * & + + + + + # + + + + + + + + + + ",
"C C C C b * & & + O O + + & & * & & & & & & & & & # N n.n.c.c.m.m.c.3.e.k.^ < & # O O # @ & & & & & & & & & * * & & + O O + @ & ",
"C C C C * & # + o o + # & * b b * * * b n * * & + + 1 n.c.z.k.b.c.k.z.z.z.e.1 O + O O O O + # $ * * b * * * ; C * * # + + + * * ",
"b C C b & & O o o o + # * C C C C C C C C * & + + . B n.w.0.k.v x v k.z.e.c , O O O + O o O + & b C C Z C C Z C C & @ O + & * C ",
"b b * * & + O O + + # * * C C Z C C C b b & & O O O < q.` %.P.` E.'.n.e.^ 2 % O o O O + # # & b C C C Z C C C * * & + + + & t C ",
"b * & # + O O + @ & * * b C C C C C b * & @ + O O + > s  ._.T.^.+X,XS.0.s 3 % o   o O + & & b b C Z C Z C C * * @ + O O + & b C ",
"b & + O O O O + & * C C b b C C C n * & + O O O + # & : L..XoX.XOXXXw.l z :.3   o o + # b b b C C C C C Z * * + + O o O + & C C ",
"* $ + O     O # & b C C C C b C b * * + + O     O $ N r.F.U.R.R.U.D.3.1.;.7.7 4 O + # & b b b b C * C b * * @ + o o o O + & & b ",
"@ + O . X   O + & C Z C Z C b * * # + + O o   o O @ K K.H.j.I.I.J.G.7.7.=.7.i.V B > & b b C b b C C * * & & + O o   o + + $ = & ",
"+ O O o O   O + * C C C C C C * & + O O O o o O + @ K K.d.,.p.p.G.K.K.7.=.=.7.a.h.M b b b b b b C C * * # + O O O o o o o o + + ",
"O O + O O O O + & * C C Z C * & + + O O + + o o + G _ 7.g.G.G.G.G.,.7.7.9._ Z.N.a.t.Y n b b b b Z * * + O O O + O + O O + O O O ",
"+ + $ $ @ + & & & * * * * * & & # + + # # + + + m X.V.5.a.G.G.G.7.:.:.7.f.+.E.V.h.G.r.K n b b b * * @ + O O O + # # & & # # # # ",
"& * & * * * * * & & & @ @ & & & & & * * * & + m E.Q.V.7.:.=.=.&.>.i.i.7.t.X.W.Q.V.5.7.h.S n b b * @ + O o O + * b * & & & * * & ",
"Z b * b b C C * & # + O O + + & * b b C b b # m @.Q.Q.[.N.7.;.;.7.g.[.F.6.( @.Q.Q.5.g.h.S n b b # O O o O + # * b b b b b C C b ",
"Z C C Z Z b * * & + o     o + & b C C C C C & m +.+.E.=X`.N.8.t.8.A.&X`.y.Q ..#.Q.r.f.f.Q M b # + o O O + @ * b C Z C Z Z Z b b ",
"Z C Z C C * * & # O O   X   + & b C C C C C b Z o.] +.}.}.!.E E ! q.{.}.(.&.Q ..W.W.y.7.K.P & + O o + + & & * b C Z C C C b * & ",
"Z C Z C * & + O O O O o   o + & b C C C C C C H +XW.( x.x.' E E ! 2.x.x.e.1.Q o.@.@.r.5.a.f.V o o O + & * b b C C C C C b * & + ",
"C C Z b * $ + O O O O O O O + & * C C C C C J ~.-X{.O.q.1.^ ] ] ! <.3.3.<.z d } ).].`.A.7.a.6.o O + & * b C C C C C C b b & + O ",
"b b b & & @ @ + + # @ + # + & & & * b b C S /.:X:X*X_.4.1./ X.+.' v 3.2.z z , { |.>X:X%X1.,.7 O % & & b b C C Z C b b * & & + + ",
"b & & @ & & * & * & * * * * * & & & & C S ].;X:X:X*X_.4.1./ +.#...~ 1.<.<.z , [ |.>X:X%X-.>.7 # & & * b C C C C C * & & & & & * ",
"b & + + + & * b b b * b C b * & + + # * S #X:X:X=X].} d Q _ #.W.#.o.^ x 1.z , [ +X>X:X%X-.>.5.K : b n C C C C C C * @ O + & * * ",
"* & + + & * C Z C C C C C b * & + o + & S #X:X-X|.| @ - Y X.W.E.W.#.E ^ <.z , [ |.-X>X%X-.;.7.i.N C C C C * C C * & & + + & b C ",
"& & + & & b Z Z C C C C b * & @ + o + # C #X=X@X|.| < j ( ..+.+.+...E / 3.3.1 { |.|.=X%X*.&.;.u.N Z C Z Z C * * & & & @ & * * Z ",
"@ & & * b * Z Z C C C b & @ + o O O + + # !.).!.!.T < z / ) l.) ' ) ! v <.2.w T !.}.$X X-.&.;.u.L Z C Z C C & & # @ & * * b C C ",
"+ & b Z Z C C Z C C b * # + o o O O o O O Y R R I D < z l l v v 1.v l j l <.w D ` ).{.(.&.&.=.8.1 b C Z C b & + + + & b Z C b b ",
"+ & b Z C C C C * * * & & # + + + + O o O L R I t * 2 u u y y y y u u y u i w F W +.E.C.&.&.8 > * * * * * & # O + # * C C Z Z C ",
"+ & b C C C C C * & & # & & & @ + O O o O ; M M & $ - y y y y y y y y y y y t A F G G Y 4 4 3 + & @ & & & @ + o O & * b C C C C ",
"+ * b C C C C C & + + @ * b * & + O o O O O + o + + @ y y y y 0 0 0 y y y y t b C C b * + + O O O + O + + O O O + @ * C C C Z C ",
"+ & * C C C C * & + + # * C C & @ O O O + + + + O O q y y y y + @ & y y u y t * b C b * @ + o O + O O + O + O O O & & b b C C C ",
"+ @ & * * * & & & # # & * C b * # O O # @ & # # # + > y y y y + + @ y y u y * * * * * # + + + + # @ @ & # + + O O + & & * * & * ",
"o + @ # + # + # & & * b C C b & + o + & * * * b * & ; 0 y y 0 + + # y y y y y + + # @ + + O + # * * * * * & # + O O + + + # + # ",
"O O O + O o + @ & * C C C C * & + + @ & * C C C C & 0 r y 0 O + O O 9 y u i 0 9 = + O O O O # & * C C C C * & + O o + + + O o + ",
"+ + O o O O + @ * C C C C C * & + + # * C C C C t e j z g 2 O O + O # 5 h 3.k 1 O O o O O O @ & C Z C C C * * & + + o O o O + + ",
"# + O O + # & & * C C C C C b & + + # C C C C C t f z z h 5 + + + @ @ d v q.3.f + O o o o O @ * C C C C C b * * & @ + O + + # & ",
"* # + O + & b b b b Z Z C C b & + O # * C C C C b f z z h 5 = O + & n U q.q.k.f & O O o o O + * C C C C C b C b b & # O + # * b ",
"* & + + + b b b C n b b C b b & + + @ & * C C C b d z h 5 ; + O # & b D U q.q.~ & + O O O + + & t C C C b C C C b b # + + & * C ",
"* & + O = b C C C C C b b b & # O O + + & * * b t f l g e & + + + * Z Z a w.q.U * & + + O O + + & & & C C C C C b b # O + & b C ",
"* & + O = & C C C Z C b & & + O O O O + & & * ; Z d l g t & + O + * q C w z 4.U C * * & + O o + = & & b C C C C b & # O + & * b ",
"* & + O @ * * C C b b b $ + O O O O O O O + & : s j g g e & + + + & n C e h z f C C * * # + o o o + & b b b C C C & # O + # * C ",
"* & + + @ * C C C b * & + O O O + # + + O + + ; a a p p t & + + + & * b : p a w C C b * & + + O o O + & b b C C C * # O + & * C ",
"C & + O @ * C C b & & # O o O + & & & + O O + $ & * C C * * # O + + @ & * b C C C C C * * & # + O o + # & b b b C * @ + + & b Z ",
"* & + O @ * C t b # + O O O + # * * & @ + O O O + & * C C & @ O o o + + & * Z Z C C b C C b * # + o o + + # & b b * @ + + & b Z ",
"* & + O @ * C * & + O o O + + * b C * & + O O   o # & b b & & O O O O + & * * C C b b Z C n * & @ O O O O + * * * * @ + + & * C ",
"* + + + + & * & # O o O + @ & * b C * & O O o o O + # b b & + O O + + & & & * * b b Z C C C b * & @ O O O O & & * & + + + + & * ",
"@ + + O + + + & + O O + # & b b C b * # + o O O + + + $ + O + O + # * * & @ + & * C C C C C b b * & & + O o + + @ # + O + + # # ",
"O + O O + + + O O o O # * b b C C C * & + O O O O O O + O O o + @ * * * * + + + & b C C C b C b C b & + O O O + + O + O O O + + ",
"O O O O O O O O O + # & b C C C C b * & + O o O O O + + + O o O & & C b * @ + + & & b b C b C C C C * & + + O O O O O O + O O O ",
"O O + O O o o O + & & * b b C C C C * # + O o o O + # & & # + O = & b C * * & # & & & * b C C C C C b * & & + O   O O + O o o o ",
"O O O + O o o + & & b b b b C C C C * & + o o o o + & b & & + + $ b t C C C * * # + + & * C Z C C b b b n & @ + o o O O O O O O ",
"O O O O O O + # & b Z C C b C C C b * # + O + o + # * b b b # o + $ * C C C C * & + O & & b C Z b b C C Z * & @ O O O + O O O O "
};
