/* XPM */
static char *_ae9df327b834e59c7a6652b9567a875TnSc0lTPZpABiY6Q[] = {
/* columns rows colors chars-per-pixel */
"64 64 201 2 ",
"   c #0F1F31",
".  c #101E30",
"X  c #0E1C2F",
"o  c #0F2131",
"O  c #122533",
"+  c #152A36",
"@  c #182F37",
"#  c #172E38",
"$  c #182F39",
"%  c #1B2732",
"&  c #19343A",
"*  c #1C3A3E",
"=  c #163435",
"-  c #232B33",
";  c #292A34",
":  c #362C36",
">  c #23343A",
",  c #233B3D",
"<  c #2A353A",
"1  c #323335",
"2  c #32333A",
"3  c #3B353B",
"4  c #343B3A",
"5  c #3A3836",
"6  c #473C35",
"7  c #523C35",
"8  c #5B3F34",
"9  c #473231",
"0  c #692F33",
"q  c #0D4C32",
"w  c #115B32",
"e  c #1B4F3B",
"r  c #28403E",
"t  c #37413C",
"y  c #2F5F32",
"u  c #0B6530",
"i  c #126232",
"p  c #1A6232",
"a  c #474238",
"s  c #55433A",
"d  c #5B4437",
"f  c #63422C",
"g  c #69442E",
"h  c #6A4635",
"j  c #744A35",
"k  c #7E4C36",
"l  c #794E3B",
"z  c #7A4838",
"x  c #7C503B",
"c  c #1E3E41",
"v  c #1E3540",
"b  c #233E43",
"n  c #2E3B40",
"m  c #333C41",
"M  c #3D3D40",
"N  c #493C42",
"B  c #603D47",
"V  c #1F4143",
"C  c #204143",
"Z  c #2B4648",
"A  c #33494E",
"S  c #374956",
"D  c #395154",
"F  c #4D4244",
"G  c #4B4D4C",
"H  c #434448",
"J  c #5C4A42",
"K  c #5E5044",
"L  c #434C54",
"P  c #494A51",
"I  c #465555",
"U  c #555459",
"Y  c #595755",
"T  c #674947",
"R  c #794444",
"E  c #6C5249",
"W  c #66524B",
"Q  c #745246",
"!  c #78574B",
"~  c #675C59",
"^  c #7C5E54",
"/  c #765A57",
"(  c #744A51",
")  c #64625C",
"_  c #74615A",
"`  c #4C5E6B",
"'  c #5C5D62",
"]  c #715A61",
"[  c #4E616D",
"{  c #5B6E71",
"}  c #6B666A",
"|  c #6A6A6E",
" . c #666465",
".. c #796C67",
"X. c #6D6B72",
"o. c #656C72",
"O. c #726F77",
"+. c #7A757D",
"@. c #77777D",
"#. c #76716D",
"$. c #8F3434",
"%. c #8B3C39",
"&. c #933535",
"*. c #933A3C",
"=. c #9C3A3A",
"-. c #9A3536",
";. c #A23D3E",
":. c #AB3E3E",
">. c #814E36",
",. c #814C38",
"<. c #85513A",
"1. c #8C553B",
"2. c #8F583E",
"3. c #8E3F41",
"4. c #A33F40",
"5. c #8D494C",
"6. c #874346",
"7. c #954743",
"8. c #845442",
"9. c #8C5C46",
"0. c #885944",
"q. c #945E4C",
"w. c #964D52",
"e. c #8B5558",
"r. c #A34242",
"t. c #AB4244",
"y. c #AC4A49",
"u. c #B6484A",
"i. c #BA494D",
"p. c #B6464C",
"a. c #A84B55",
"s. c #BC4C52",
"d. c #B74B50",
"f. c #AA5559",
"g. c #B65955",
"h. c #9B624F",
"j. c #896454",
"k. c #9E6551",
"l. c #916E5D",
"z. c #9F6953",
"x. c #A56E59",
"c. c #A36C56",
"v. c #A8735C",
"b. c #A6715C",
"n. c #B17F5C",
"m. c #A85D63",
"M. c #93776A",
"N. c #8C6B71",
"B. c #877279",
"V. c #8E676C",
"C. c #A56366",
"Z. c #A87964",
"A. c #B77865",
"S. c #AC6869",
"D. c #C64E56",
"F. c #C25053",
"G. c #C26954",
"H. c #D55561",
"J. c #9A8C79",
"K. c #BD8871",
"L. c #CE8A5E",
"P. c #D59473",
"I. c #C5917B",
"U. c #D0A473",
"Y. c #E3B07E",
"T. c #7B7B85",
"R. c #827C85",
"E. c #877B85",
"W. c #7C8387",
"Q. c #788795",
"!. c #708B95",
"~. c #7E90A8",
"^. c #96878D",
"/. c #848A93",
"(. c #939294",
"). c #A78792",
"_. c #A38E8B",
"`. c #8995A5",
"'. c #BE9EB1",
"]. c #96A3AC",
"[. c #9BAAB5",
"{. c #A1B2BF",
"}. c #B5A2B4",
"|. c #DBBC98",
" X c #D3AF92",
".X c #E9BE93",
"XX c #E0C2A1",
"oX c #9FB0CB",
"OX c #98BBC3",
"+X c #9CA9C0",
"@X c #A1B3C0",
"#X c #A8B9C9",
"$X c #BCB1CA",
"%X c #B8BFD5",
"&X c #B0C1D5",
"*X c #B9CAE2",
"=X c #BECEEA",
"-X c #B4C4E3",
";X c #CADAFB",
":X c #C4D5F3",
">X c #CECCCE",
/* pixels */
"* & + O $ & * * & + + O + + O + # # # # # + O o O + & v * * @ = + + + + & & c v v v c * V * * & = # + + + $ * c c * $ + + & v v ",
"& + + O + $ & & & & & @ + O + + & = & * & = = o o + # & * & & & & & * & & = & & & & & & & & & * & & & = = * * V V * = O O + & & ",
"+ + O O O O + @ * * * * + + + @ * c V V c v & + + o o + + & * c c V c v & $ + O + + + + + + + & c V c v * c V V c c = + + + + + ",
"O O O + O O O + & V V * = O + & V V V V V c * # + O o o + & * V V V V c * = + o O O O O o + # & c V V V V V V V c & # O o o o O ",
"O O O O O + & & * V c * = O + & * V V V V c * & = + O o + $ v V V V V V * & = + O O O O + = & * c V V V V V c v * & + O o o o O ",
"O   O O + & & * c V c * @ + + & c V V V V C c c v = + O + & c V V C V c c * & & @ O + + & * * * c c V V V V c $ + + + + + o o o ",
"O   o + + * V V V V c * $ O + & * V V V c V V V c * = O + = v V V C V c V V V v = O + $ & c V V c V c V V c & # + o + O O o O + ",
"O O + + & * V C V V c v @ O + @ * * c r b c V C V v $ + O $ & c V V c c V V V c & + O = v V C V V c c c c * = O o o o O + + + + ",
"O $ = & * c c V V C V * = + O + @ & * c V V V C c * & O O + & & * * V V V V V * & + O = * V V C V V V v & = $ o O O O O + @ & * ",
"+ & & c c V c V V C V * $ O O O + + & * c V V V b * & + O O + + & * V V V V V * = + + $ * V V V V V * $ $ + O + O O O O + & * r ",
"$ & c V V V c c V c c v = O O o o O $ & c V V V c * = + O . . O + * * C r V r * $ + O = * * V V V * * $ O o o + O O O O # $ * V ",
"& v c V V V V c c c & & $ + o o   O + @ & * c V V * & + O o   ~ M.M.M.M...Z V * = + O $ * V V c * & $ + o o o + O O O O + = & * ",
"c c c V V V V c c & $ + O O O   O O O O + & * V V * & + O O . ^ A.K.I.K.Z.) ~ I & + O & v V V * & # + o o o o o o o + o O # # = ",
"V V c c V V V c & $ O O O O O O O O O O O + & b V * & + O O % 7 0.v.v.c.c.I.I.M.b + O & c V c & + O o + o o + O + + o + O + O O ",
"V V V c V c c & = + o O O $ $ + + @ + + + + & * * * & + O - 8 ! 0.! c.v.c.v.n.Z.j.2 O $ & * * & + + + + # # # # # + + o o + + + ",
"V V V V V v & $ + O O O $ & & & * & & & & & & & & @ + O O 1 <.q.h.8.c.v.v.k.c.x.b.M + + & & & & & & & & & & & * & $ # O + # $ $ ",
"V V V V v & $ + O o O # & * c c * c * c c * & & + O O o O 4 h.h.z.z.h.z.c.z.h.z.Z.M O + O + # & * * c * * * C * , * $ O + = & c ",
"c V V c * = O o o o + & * c V V V c V V c c & $ O O O O @ 4 z q.k.h.x j <.h.1.0.b.M + o O o # & * V V V V V C C * * = O + & c b ",
"c c * & & + O O + + & & * V V V V V V c * * & O O O + + & , a Q h.c.J.W.| K...) 9.2 O + + # = * V V V V V V c c * & + O + & c V ",
"c * & = + O O + @ & * * c V V V V V c * & @ + O O + & & v b M d >.J.>XOX!.U.(.{ 8 - o + = * * c V C V V V V v & @ + + O + & c V ",
"c & $ O O O O + & * V V c V V V C c * & + O O O + + & * C 3 -.,.j 1. X.X|..X|.J.% % + v * * V V V V V V C * & @ O O O O $ & c V ",
"& @ + o     O $ & c V V V V * V c * * + O O   O + + * V F 6.4.%.>.1.G.P.Y.Y.P.A.B 9 # $ * V V V V V V V * * & + o o o O + = & c ",
"& + O   . . o $ & V V V V V V * * & + + O o     + $ b H 6.r.;.-.=.p.p.G.L.L.g.i.H.N & v c V V V V V * * & & + O O   O O O $ = v ",
"O O O O o   o + * V V V V V * * @ + O O O o o O O @ M f.i.4.&.&.t.H.H.D.y.y.t.s.H.F c c c V V V V V * & = + O O o o o o O O O + ",
"O O O + O O + $ & v V V V V c & + O O O O + o o + N w.d.m.V.( 7.4.t.4.D.D.D.D.D.t.] I V V c V c V v * = + O O + O + O + O O O + ",
"$ + $ $ @ @ @ = & * * * v & * & & + + $ $ $ + + 3 3.s.f.V.T.X.w.4.=.;.4.D.D.D.4.=.V.o.D Z C V c * * @ + o o O + $ & = @ @ $ + $ ",
"* & & * * * * * & $ = = & & & & & & * * v $ $ % a.p.3.E.R.T.X.w.4.4.t.:.&.&.-.-.4.N.R.O.A V c v & & + O o O $ & & * * * & * & * ",
"c c c c * V V v & + + + O O $ & c c c c c b $ $ a.4.%.E.R.@.~ 6.S.'.m.4.;.;.4.m.'.E.T.T.A V c v + + O o O + & v c V c v V c V c ",
"C V V C C c c * $ # o o   o + & c V V V V V n B a.a.e.E.T.] T e.).&XC.7.5.5.f.).*XR.X.X.Z c v @ + o O O + = & c V C V V V V V c ",
"C V C V V v & & # O o       + & c V V V V C J H.4.e.T.E.} T $.^.[.].0.E U U Q.[.[.| ) o.Z v = + O o O + & & c c V V V V c c * & ",
"C V C V * & $ + o o o o   o + & c V V V V ( f.u.-.e.T.T.' E ,.q.M.l.<.E U U / l.l.~ T.+XS # O O O O $ & * c c c V V V V c * & + ",
"V V C c * = O O + O + O o O $ & * c V V V 5.i.4.S.E.`.R.' N ,.,.<.1.<.E ' ' Q >.8.#.[.=X!.S O O O O = * c V C V V V V c c & + O ",
"c c c & & & $ + # $ $ = = = & & & * v c n B ;.*.$X;X:X{.` 1 k >.>.1.,./ X.X.! <.2.(.&X;X;XQ.$ + + & & v V V V V V * v c * $ = + ",
"c * & @ = & & & & v & & v v & & & = * c C R =.*.$X;X:X{.` 1 k >.>.>.E } @.X.! <.9.(.&X;X;X-X~.v & v * V c V V V V * & $ $ = & & ",
"* & + + @ & * c c c c c V c c & $ + & n J 3.;.*.$X;X:X{.[ 1 >.>.l E } O.R.O./ T s ' `.*X;X;XoXb * * V V V V V V V * = + + = v V ",
"& & + + & v V C V V C V V c v = + o % 3 r.t.=.*.$X:X:X{.[ 4 >.>.Q U +.E.R.R. .L - + [ @X=X;XoXb V V V V V r V * * & = + + & c V ",
"& & + & & c V C V V V V c & & $ O o + 3 7.;.&.*.$X*X@X{.[ 4 1.1.! U | X.X.O.| ~ h ; ` [.OX*XoXb * C V C C V * * & & = @ & v V V ",
"& & & * * c V C V V V c & $ + O O + + : r.-.$.&.}.@X].W.L 4 <.<.l E ^ ^ ^ ^ ^ ! k 1 S W.W./.T.b V C V C V V * & $ = & * v V c V ",
"+ & c C V V V c V V c v = O O o O O O ; %.$.$.%.^.].`.) m 4 ,.j j j l l x x j j k 1 < G Y Y G & c V V C V * & + O $ * * V V V c ",
"+ & c C V V V V * * * * $ $ + + + O O O - 0 $.&.B.W.o.Y m 1 p u i u i u i u i u i 3 @ > G Y G & * * * * * * + O O $ * V V V V c ",
"+ & c V V V V V v & = & & & = $ + O O   o : 9 9 P L S m > > u u u u u u u u u u u < & & < m n $ $ @ = & & = + O O & * V V V V V ",
"+ * c V V V V V & + + $ * v c & @ O O O O O O O O + O O + % u u w u w u w u u u u e c & & O o O O + O + + O O o O & v V V V V V ",
"+ & * v V c V * & + + = * V c & @ O O O % + + O + O O + O @ u p u u , c r u u u u e c & & O O O + O O + O O o O O $ & c V V V V ",
"+ = * * & * * & $ $ = & c V c * + O + $ & $ & $ = + + o O = u w u u & & * u u u u r * & + O O + $ & @ & & @ + O O $ & & * * & * ",
"O + + = = $ # + & & * c V V c & $ O + = v v * c * & + + o u u u u u @ + & w u u i < = @ O O + & & v c c v * + + O O + $ + @ + = ",
"O O + O o O o $ & * V V V V c & + O $ & c V V V V * = = q i p i u q O + O O w u y w O O O O $ & c c V V c * & + O o O + O O O O ",
"O O O O o O + = * V V V V V c $ + O $ * V V V V V * & = 5 h 0.j 9 % + + @ + 5 f k h : o O O $ * V V V V V c v = $ O O o O O + + ",
"& + O O + $ & * v V V V V V c & + O = V V V V V V V v * s 2.9.x a = & & & & 6 g k ,.7   O O + & V V V V V c c * & $ + O O + = & ",
"* & O + @ & * c V c V r V V c = $ O $ & V V V V c c c c K 9.9.9.J $ e V * r a f k >.7 o O O + * V V V V V c b V * & + + + = * c ",
"v & + O + * C C V V V b V c v = + O $ & c V V c c V V V K 9.9.s < & c V V r , a g j 7 o O O + & * V V V c V V V c * @ + O & * V ",
"v & + O @ * V C C V V c c v & = O O + = & * * c V V C V K 9.2.1 # & V V V V V r f j s + O O + + & * * * V V C C V * + O + & c V ",
"* & + O @ * c V C C V * * $ + + O O O + $ & * c V C C V K 8.k 1 # * V V V V V 4 f j d > + O O O + @ * V V C C V c * + + + & * b ",
"* & O + + * V C V V V v = + o + O + o O O + & v V V V V s l g 1 + & V V V V V t f f g d > O O o O + & * V V V V c & + + + = v V ",
"* & + + = * * C V V * & + O o O + $ + O O + = & c c V V t a 9 - + $ * c * V V r a a a a > $ + O o O + & * * V C V * $ O + = c V ",
"V & + O @ * V C * * $ # + o o $ & & = + O O + & & v c V C & = O + $ $ & * V V V V V r r * & + + O o + + & * * V V * + + + & c V ",
"* & + + @ * V c * = + + o o + $ v c & $ + O O O $ = c c b * @ O o o o # & * V V V V * V V * * & + o O O + & * c c * $ + + & c V ",
"* & + + + * V * $ # O o O O = & c V v & + o o O O $ * c c & $ O o O O + & & c V c c V c V C * & $ + O o O + & * c * @ + + & * V ",
"& & O O + & * & = o o o + $ * v c C c & + O o o O + = & * & + O + + + & & & & * c V V V V V c * & @ O O O O = * & & + O + + & * ",
"@ + + O + = @ $ + o O + $ & c c V c v = + o O O O O + $ + + O + + = & * & + & & * V V V V C c c * & & + O O + + & + + + O $ & + ",
"+ O + O O + + O o O + $ * c c V V c * @ + o O O O + O + O O O O + * c c * $ O + & c V V V c c V V c & $ O . O + + O + O + O + + ",
"O O O O O O O O O O $ & c V V V V V * & + O O O O O + + + O O + @ * V c * = + + & * v c c V V V V c * & + + O O O O O O O O O o ",
"O O O O O o o O + & & * c c V V C c * = + O o o O + $ & & $ O O $ * c C c & & & & = & * c V V V V V c * & @ + O . O O O O O o O ",
"O O + O O o o + & * c c c c V V V V v = + o o o o + & * * & + + + & c c V c v * $ + + & * V V V V V c c * * = + O o O + O O O O ",
"O O O O O O O $ & c V V V V c V V c * & + o O O + @ * V c * + O $ & c V V V V * & + O & & c V c c c V V b b & + O O O O O O O O "
};
