/* XPM */
static char *_b6b18a8ba5b412fb102ec5d2c9cdfddjQOQ8rqXQdu5qXfU[] = {
/* columns rows colors chars-per-pixel */
"64 64 146 2 ",
"   c #0F1F2D",
".  c #0F1F31",
"X  c #101E30",
"o  c #0F202E",
"O  c #11222E",
"+  c #0F2131",
"@  c #122533",
"#  c #152A36",
"$  c #182F37",
"%  c #172E38",
"&  c #192E39",
"*  c #173136",
"=  c #193136",
"-  c #19343A",
";  c #1C3A3E",
":  c #212F3B",
">  c #23333C",
",  c #28363F",
"<  c #213A3E",
"1  c #1E3E41",
"2  c #233541",
"3  c #2A3441",
"4  c #223C41",
"5  c #2C3C45",
"6  c #303743",
"7  c #323A45",
"8  c #343E48",
"9  c #3B3F4B",
"0  c #1F4143",
"q  c #204143",
"w  c #2C4147",
"e  c #2B454A",
"r  c #2E494E",
"t  c #314047",
"y  c #32424A",
"u  c #3D424C",
"i  c #31494F",
"p  c #374350",
"a  c #394452",
"s  c #354A51",
"d  c #3B4B54",
"f  c #395057",
"g  c #43434F",
"h  c #454551",
"j  c #454954",
"k  c #494956",
"l  c #444F5A",
"z  c #4D4D5A",
"x  c #45525C",
"c  c #4C525D",
"v  c #51515E",
"b  c #4B5561",
"n  c #545562",
"m  c #565A63",
"M  c #595A67",
"N  c #5C5D6B",
"B  c #5F626D",
"V  c #61616E",
"C  c #646473",
"Z  c #686976",
"A  c #676778",
"S  c #6B6B7B",
"D  c #696A7B",
"F  c #6C6C7D",
"G  c #6D6D7D",
"H  c #6C6C7C",
"J  c #6F707C",
"K  c #72727F",
"L  c #70727D",
"P  c #6F6F80",
"I  c #717181",
"U  c #737384",
"Y  c #747585",
"T  c #757586",
"R  c #767687",
"E  c #737384",
"W  c #777985",
"Q  c #757986",
"!  c #797B85",
"~  c #777788",
"^  c #777B88",
"/  c #7A7B88",
"(  c #79798A",
")  c #7A7A8A",
"_  c #7B7C8A",
"`  c #7D7F8B",
"'  c #7B7B8C",
"]  c #7C7C8D",
"[  c #7D7D8E",
"{  c #7E7E8F",
"}  c #7C7D8D",
"|  c #7F7F90",
" . c #7F818D",
".. c #7D818D",
"X. c #80828E",
"o. c #82848F",
"O. c #80828F",
"+. c #808091",
"@. c #828391",
"#. c #838591",
"$. c #838691",
"%. c #838493",
"&. c #868795",
"*. c #838492",
"=. c #878896",
"-. c #878996",
";. c #868993",
":. c #898C96",
">. c #8A8C96",
",. c #8A8D96",
"<. c #8A8D97",
"1. c #898C96",
"2. c #8A8B99",
"3. c #8B8D99",
"4. c #8C8F98",
"5. c #8C8E9A",
"6. c #8A8D99",
"7. c #8B9096",
"8. c #8E909C",
"9. c #8F919C",
"0. c #8E919B",
"q. c #91939E",
"w. c #91949D",
"e. c #92959E",
"r. c #92949F",
"t. c #93969F",
"y. c #93979F",
"u. c #91949E",
"i. c #94989F",
"p. c #9497A1",
"a. c #9598A1",
"s. c #9598A2",
"d. c #979AA3",
"f. c #979BA2",
"g. c #989BA3",
"h. c #989CA4",
"j. c #999DA5",
"k. c #9A9DA5",
"l. c #9A9EA6",
"z. c #9B9FA6",
"x. c #9C9FA7",
"c. c #999DA5",
"v. c #9CA0A7",
"b. c #9CA0A8",
"n. c #9DA0A8",
"m. c #9DA1A8",
/* pixels */
"; = # @ % - 1 ; - * # @ @ @ @ % % % % % % # # + + # - ; ; ; & & % # # * & - ; ; 1 1 ; 1 1 1 1 - * @ @ # # * ; 1 1 1 - @ @ - 1 1 ",
"= % # @ # % & & - - - * % @ # * - - - ; ; & * @ + # * & - - - - - - - - - - - - - & & - - * - - - 1 1 - - - 1 1 0 - - @ @ - * % ",
"# # @ # + # # % ; 1 1 - % # @ - ; 1 0 0 1 ; & # + + + # % - ; 1 1 0 1 ; - * # @ % % % % @ % * - 1 1 1 1 ; 1 0 0 0 1 * @ @ # # # ",
"@ @ @ @ # @ + % - 0 1 ; & + # - 1 0 0 q 0 1 - & # # + + # - ; 0 0 0 0 0 ; - @ @ @ + + @ + @ % - 1 1 0 1 0 0 0 0 1 - * @ + + @ + ",
"@ @ @ @ # # % - 1 1 1 ; & @ % - 1 0 0 0 0 1 1 - & # + + # - ; 0 0 0 0 1 ; - & # @ @ @ + # % - 1 1 1 0 0 0 0 1 ; - - % # + + + @ ",
"+ . @ @ # & - 1 1 0 1 1 * @ % - 1 0 0 0 0 1 1 1 ; - # # # - 1 0 0 0 0 0 1 ; ; - * @ @ * & - 1 1 1 1 0 0 0 0 1 - % # # + # + + + ",
"@ + + @ & ; 1 0 0 0 1 - * @ # & 1 0 0 0 0 1 0 0 0 ; % + # & ; 0 0 0 1 1 0 0 0 ; & @ @ % ; 1 0 0 1 0 0 0 0 1 % % @ + # # # + @ # ",
"@ @ # % - 1 1 0 0 0 1 1 & @ # * - 1 1 1 1 0 0 0 0 ; & # @ % - ; 0 0 1 0 0 0 0 ; - # @ % 1 1 0 0 0 1 1 1 1 1 % @ + + + + # @ # & ",
"+ % & ; ; ; 1 0 0 0 1 1 % # @ % - - 1 1 1 1 0 0 0 ; * # @ # & - ; ; 0 0 q q 0 1 % # @ & 1 1 0 0 0 1 1 1 - - # # # + @ # # % - - ",
"# * ; ; 0 0 1 0 0 0 1 ; % + + + @ % - 1 1 1 0 0 0 ; & # @ @ # # - ; 0 0 q 0 0 1 % # # & - 1 0 0 0 1 - - % # @ @ + # + @ # - 1 0 ",
"& - 1 0 0 0 1 0 0 1 1 1 & # @ + @ @ # 1 1 1 0 0 1 ; & # @ O @ @ % - ; 0 1 0 4 ; & # # % 1 1 0 1 0 1 1 # + + @ # # + @ @ % - 1 1 ",
"; ; 1 0 0 0 0 1 1 1 - - % % + + + + @ & - 1 1 1 0 ; 2 a z h h k h k j j k k j h c p & * 1 0 1 1 1 - - # @ + + @ + # + # # - - - ",
"; 1 1 0 0 0 0 1 ; - & % @ + + + + @ @ # # - 1 1 0 4 4 a h h h h h h h h h h h k n p 2 % 1 1 1 1 - % @ @ + + + @ + + @ @ @ # & - ",
"0 0 1 1 0 0 0 1 - % # @ + # @ # @ @ @ + @ - 5 s s i d h z k k k k k k h h k k h k l 9 5 4 1 1 - # + @ @ @ + # + # # @ @ # @ # + ",
"0 0 0 1 1 1 1 ; & # + @ # # % % % # % # # 3 a b b k h h h ! 1.4.<.<.<.*.` T T T C j k d e 1 1 - % # # # % % # # % # # @ @ # # # ",
"0 0 0 0 1 ; - - # + + @ % - - - - - - - - p b V k k k z g x.x.v.v.m.m.w.%. .| | ( D k z a 1 & & - - - - - - - 1 - & # @ # # % - ",
"0 0 0 0 ; ; # @ + + # % - 1 1 1 1 1 q e s b z k N ! K z g >.t.x.m.m.x.q.&.| | | ' T P j k 8 5 4 1 1 1 1 1 ; 1 1 ; ; % # # % - 1 ",
"1 0 1 1 - & # + + + # - - 1 0 0 0 1 e s b k n <.4.4.>.` h N >.x.m.x.x.p.&.| ' | | ( T D j l a 5 1 1 1 1 0 0 4 q 1 - & @ # - 1 0 ",
"0 1 ; ; & % + @ @ % & - 1 1 0 0 0 q s x j C <.v.x.x.a. .v n o.g.x.x.k.9.&.| | ' | | | T C j z i q q 0 0 0 0 0 1 ; = # @ # - 1 0 ",
"1 ; - & # @ @ # * - ; 1 1 1 0 q r s b j C $.w.b.g.a.2./ h v o.g.l.d.p.2.+.| | | ' | | U C v h k f r q 0 0 1 1 - = % # @ # - 1 0 ",
"1 - % @ + @ @ * * 1 1 0 0 4 1 e f c k V <.w.g.v.t.9.@.U h v O.g.k.5.=.%.| | | ' | | | P V z z h b d e 0 0 1 - % # + + # % - 1 0 ",
"- = # @ + + + % - 1 0 0 0 q q e x k v o.f.c.c.c.9.#.) N h k O.t.q.%.| | ' | | | | ( ( P v h h v j b s 4 1 - = # + + + + # & ; 1 ",
"- # @ + . . + & ; 1 0 0 q e s f x k T +.q.w.w.q.*.' Z h h g K O.+.[ | | | | | | ' T U N h h h h k k d 5 4 = % @ + + + # @ * & - ",
"@ @ + + + + + % 1 0 0 0 0 s x n j S ) +.%.%.%.%.) S k V h h h G E ~ | | ' | | | ( U D k k h h C n h c 8 3 % @ @ + @ + + @ @ @ # ",
"@ @ @ @ @ @ @ % - 1 1 1 q d b k N T ) ' ' ' ( T G k M P ~ z h h z K ' ' ' ' ' ' R S k k g h C #.e.z M 9 3 # @ @ # @ @ # @ + @ # ",
"% % % - % % = & - 1 - 1 4 y j k C G I I P F N n z z P T ' T n h h h z k k k A P V z k g g k K 2.i.z n 9 3 # # % & & & % * & # & ",
"- - - 1 - 1 1 - - - & & = 5 g g k k z z k h k h k G ( ' { U V h h h z k h h h h g h h h k C +.q.g.z n 9 3 # % - ; ; ; - ; - ; ; ",
"q 1 1 1 1 1 1 1 - % # % & u h h k k h j z h k h n G { { { U V h h h k h h k z h h h h h N [ =.q.t.z n 9 3 & = ; 0 1 1 1 1 0 0 1 ",
"q 0 0 q q 0 0 1 - # + 3 3 h n G G G G P G C k h C U { { { T A h h C P P F F V k h k h z G ] *.2.>.z v 9 3 - ; 4 0 0 0 0 0 0 0 ; ",
"q 0 0 0 1 1 - - % @ + 8 9 h v 1.#.' ( ( ( P z h A T { { { ( A h h F ( ( ( T C h h h k C K { @.@. .k v 9 7 < < 1 0 0 0 0 0 ; ; - ",
"q 0 0 0 ; - % @ + + + h h k C k.5.#.| [ [ T M h A T { { { T S h h P | ' | ( C h h h V S U ] { { _ k v g 5 q 0 0 0 0 0 0 1 ; - # ",
"0 0 q 1 - = # @ # @ # h h k V k.q.+.| | | T A h n T { { { T C h h G | | ' ( M h h h F U ( { { { _ h v 9 t q 0 0 0 0 0 0 ; - % @ ",
"1 1 1 ; - = * % % * = g j h L f.8.%.[ | [ R D k k P { {  .U V h k S { { { ' G N g h G ) { { { { ) k v 9 t q q q 0 0 1 ; - - * # ",
"1 - & = = - - - - ; - g g j ;.v.8.%.| [ [ R S h n n ) ( T A M h z V U T ~ ~ U C h h v U U U T ) T k v 9 t w q 0 0 ; - & - - - - ",
"1 - # @ % ; ; 1 1 ; < g h h ,.g.8.%.[ | [ R D h n z G C V M v g z n V C S G G P k h h k z N C A G k k g t q 0 0 0 ; = # # - ; 0 ",
"; & # # & ; 0 q 0 q q h h g $.v.8.%.| [ [ R P h k n v z h h h g g h h n N A G T U k h h h h h z v z h 9 t q 1 1 ; - & # # - ; 0 ",
"- - * & - 1 q q 0 q 0 a h h B ;.+.] ( ( ~ I n h h v h z v k z v h k h h n N A ) T C v h h h g h g h h g t q ; ; - - = % - ; 1 0 ",
"& - ; ; ; 1 0 q 0 q q t 5 j h S F F G F P D n h h h h v C C C C C C C z h z C T ) P C N k k h k g h g g t < = & & & - ; ; 1 1 0 ",
"# - ; 0 q 0 1 0 q q 0 ; > 7 g z n V C C C N n n h h k F U ~ ( ( ( ( ) N h h N T { ) ( ~ ( ( N k h g h g t < = # @ & ; 1 0 0 1 0 ",
"# - 0 0 0 0 0 0 < ; ; - - 3 9 h v n M M M k n A A k h C S ( ' ' { { { A h h N T  .#.#.X.~ K V h g g u 9 5 = # O + * ; 0 0 0 0 1 ",
"# - 1 0 0 0 0 0 ; - - & - 5 y g k z v v h k A P I C k k z P ( ' { { { Z v g N E #.=.9.O.L N k h g g , , : * O O + * ; 0 0 0 0 0 ",
"# ; 1 0 0 0 0 0 - # # * - w u g h h h h g n A ] ' ) C z n C I ' { { { Z v g N o.=.9.g.;.Z k g g g , > # O O O o O $ ; 0 0 0 q 0 ",
"# - ; 1 1 1 0 1 & # # & ; w u g g h g g g v V P T ) ' M h h M ~ { { { { z h v ;.,.i.4.K N g g g g > O O O O O o O $ - 0 0 0 0 0 ",
"# * - ; ; ; ; - - & & - 0 w u g g g g g g k v N D T [ ! n h z G { { { { k v h v v v v N v g g g > : = = # # O O O @ * - ; ; - - ",
"+ # % & # % % * - - 1 1 1 w u g g g g h h h h h N K [ [ [ k h n {  .{ { h h k h h h h g h g g 7 = = < = = = * O o o # & * * % % ",
"@ + @ % + @ + % - ; 0 0 q w 8 9 9 g h h h h k h j z Z T ' Q h h / { { { h h z ' ` ` [ v g h g > > = < < ; = * O O o @ # @ @ @ @ ",
"# # + + + + # * ; 1 0 q q q 5 5 9 9 h h 2.[ ] ] g g k C ) [ ^ h h { { ' h h ` {  .' | 5.g g , = ; ; ; ; ; ; = * % @ @ + + @ @ % ",
"& # # + % % - ; ; 1 q q q q < > 6 9 h h 2.2.[ { E h g h C [ ..c g { { h h h  . . .&.2.9.h 9 # = = ; 1 ; ; ; - - - * # + # # & - ",
"; & # @ % - ; 1 0 1 q q q 0 ; ; 3 7 h g k $.` [ [ T h h h ^ [ ..g z L j ` [ [  .7.i.7.v g O @ * ; ; ; ; ; ; 1 ; ; - % @ # = ; 1 ",
"; - # # * ; q 0 0 0 ; q 0 1 ; - & - u g h g 5.q.1.%.[ N g h ....z j g j <.y.w.w.i.7.j g g O # * = ; ; 0 ; 0 1 0 0 ; * @ % = ; 0 ",
"; - @ @ % - 0 0 q 0 0 1 ; ; - & # @ # & g g m 1.i.i.7.;.h h h h g g h h $.0.,.i.w.g g > O O @ $ = = ; 0 0 0 0 0 0 - = # # - 1 0 ",
"; - # # % ; 0 0 q 0 0 ; - = % # @ @ @ # - h h g h h j h g g h h g j g h j h j j h g g * O O o + * = = 1 0 q 0 0 1 ; * @ # = 1 1 ",
"; - # @ * ; 0 0 0 0 1 ; = # @ @ + # + + @ % - 4 t q 0 q 1 - 2 @ & - < 0 0 0 1 f i q 1 ; % + + + O * * ; 0 0 0 0 0 - # # # - 1 1 ",
"; - # @ % ; ; 0 0 1 ; - % @ @ @ # # % @ @ @ = - ; 0 0 1 1 - % # # = - 0 1 1 1 q q q 1 ; - * % + O O * - ; 1 0 0 0 ; & @ # & 1 0 ",
"0 - # @ & ; 0 0 1 ; - % # + @ % & ; & # @ @ # % - ; 1 0 0 - & @ @ % - - ; 1 0 0 0 0 1 1 ; - & # O O # * * ; ; 0 0 ; & # # - 1 1 ",
"; - # # * ; 0 0 ; & # @ + + # & ; 1 ; % # @ @ # % - 1 1 1 ; * @ @ + # * = 1 q 0 0 0 1 1 0 ; ; & * O O O * * ; 0 1 ; & @ # - 1 0 ",
"; - # # % ; 0 ; - # @ + @ # % - ; 0 ; - # + @ + + % 1 1 1 - % @ + @ @ # - 1 1 1 0 1 1 0 0 0 ; - % @ @ + @ # - 1 ; ; * @ # - 1 1 ",
"; & @ @ % - ; - & + + + # & - ; 0 0 ; - # + + + + # * - - - # # @ # % = - - - - 1 1 0 0 0 0 1 ; - & @ @ + @ = - ; - # # # & - ; ",
"% # # @ @ * % % # # + # & - 1 1 0 1 ; - # @ @ + # # # & % % @ @ # = ; - - % - - ; 0 0 0 0 0 1 1 1 - - # @ @ # % * & # @ @ % * & ",
"# @ @ # @ # # # + + # * ; 1 0 0 0 0 ; - # + + # @ @ @ # @ @ @ # * - 1 1 ; % @ # - 1 0 0 0 1 1 0 0 1 - % @ @ @ @ # + @ # # @ # @ ",
"@ @ @ @ @ + @ + @ # % - ; 0 0 0 0 1 ; & % + + @ @ # # # # # + @ % ; 0 1 1 % # # - ; 1 0 1 0 0 0 0 0 1 = & # @ @ @ @ @ @ + # + + ",
"@ @ @ @ @ + + # % = - ; 1 0 0 0 0 0 ; & # @ @ + @ # % - = % # @ % ; 1 0 1 - - & & * - ; 1 0 0 0 0 0 1 1 - = # @ + + @ @ @ + + # ",
"@ @ # @ + + + # & ; ; 1 0 1 0 0 0 0 1 - # + + + + # - 1 ; - # # % - 1 1 0 1 1 - & # # & 1 1 0 0 0 0 1 1 1 - % # + @ @ # @ + + + ",
"@ @ @ # # + # # ; ; 0 0 0 0 0 0 0 0 - & # + + + # % 1 1 1 - % @ % - 1 0 0 0 0 1 & # # % 1 1 1 0 1 1 1 1 q 1 - % @ @ @ @ # # + % "
};
